%TF.GenerationSoftware,KiCad,Pcbnew,7.0.7*%
%TF.CreationDate,2023-11-27T18:28:25+03:00*%
%TF.ProjectId,Alatyr,416c6174-7972-42e6-9b69-6361645f7063,rev?*%
%TF.SameCoordinates,PX6422c40PY6146580*%
%TF.FileFunction,Soldermask,Bot*%
%TF.FilePolarity,Negative*%
%FSLAX46Y46*%
G04 Gerber Fmt 4.6, Leading zero omitted, Abs format (unit mm)*
G04 Created by KiCad (PCBNEW 7.0.7) date 2023-11-27 18:28:25*
%MOMM*%
%LPD*%
G01*
G04 APERTURE LIST*
G04 Aperture macros list*
%AMRoundRect*
0 Rectangle with rounded corners*
0 $1 Rounding radius*
0 $2 $3 $4 $5 $6 $7 $8 $9 X,Y pos of 4 corners*
0 Add a 4 corners polygon primitive as box body*
4,1,4,$2,$3,$4,$5,$6,$7,$8,$9,$2,$3,0*
0 Add four circle primitives for the rounded corners*
1,1,$1+$1,$2,$3*
1,1,$1+$1,$4,$5*
1,1,$1+$1,$6,$7*
1,1,$1+$1,$8,$9*
0 Add four rect primitives between the rounded corners*
20,1,$1+$1,$2,$3,$4,$5,0*
20,1,$1+$1,$4,$5,$6,$7,0*
20,1,$1+$1,$6,$7,$8,$9,0*
20,1,$1+$1,$8,$9,$2,$3,0*%
G04 Aperture macros list end*
%ADD10R,1.600000X1.600000*%
%ADD11C,1.600000*%
%ADD12C,2.600000*%
%ADD13R,1.700000X1.700000*%
%ADD14O,1.700000X1.700000*%
%ADD15RoundRect,0.237500X0.300000X0.237500X-0.300000X0.237500X-0.300000X-0.237500X0.300000X-0.237500X0*%
%ADD16C,0.900000*%
%ADD17R,1.100000X0.700000*%
%ADD18R,1.000000X1.100000*%
%ADD19RoundRect,0.237500X-0.300000X-0.237500X0.300000X-0.237500X0.300000X0.237500X-0.300000X0.237500X0*%
%ADD20RoundRect,0.150000X0.150000X-0.512500X0.150000X0.512500X-0.150000X0.512500X-0.150000X-0.512500X0*%
%ADD21C,0.750000*%
%ADD22R,0.300000X1.150000*%
%ADD23O,1.000000X1.600000*%
%ADD24O,1.000000X2.100000*%
G04 APERTURE END LIST*
D10*
%TO.C,HA1*%
X1080723Y51395000D03*
D11*
X5080723Y51395000D03*
%TD*%
D12*
%TO.C,H2*%
X2000000Y3970000D03*
%TD*%
D13*
%TO.C,XP2*%
X21925000Y53325000D03*
D14*
X21925000Y50785000D03*
X21925000Y48245000D03*
X21925000Y45705000D03*
X21925000Y43165000D03*
X21925000Y40625000D03*
%TD*%
D12*
%TO.C,H3*%
X24000000Y3970000D03*
%TD*%
%TO.C,H1*%
X13000000Y63970000D03*
%TD*%
D13*
%TO.C,XP1*%
X20475000Y14655000D03*
D14*
X20475000Y17195000D03*
%TD*%
D15*
%TO.C,C1*%
X10450000Y9535000D03*
X8725000Y9535000D03*
%TD*%
D13*
%TO.C,XP3*%
X6575000Y17175000D03*
D14*
X6575000Y14635000D03*
X6575000Y12095000D03*
%TD*%
D16*
%TO.C,SW1*%
X3900000Y62670000D03*
X3900000Y64370000D03*
D17*
X5250000Y61820000D03*
X5250000Y65220000D03*
D18*
X3400000Y61420000D03*
X3400000Y65620000D03*
%TD*%
D19*
%TO.C,C2*%
X15550000Y9535000D03*
X17275000Y9535000D03*
%TD*%
D20*
%TO.C,VD1*%
X13975270Y12382110D03*
X13025270Y12382110D03*
X12075270Y12382110D03*
X12075270Y14657110D03*
X13025270Y14657110D03*
X13975270Y14657110D03*
%TD*%
D16*
%TO.C,SW2*%
X22000000Y64370000D03*
X22000000Y62670000D03*
D17*
X20650000Y65220000D03*
X20650000Y61820000D03*
D18*
X22500000Y65620000D03*
X22500000Y61420000D03*
%TD*%
D21*
%TO.C,XS1*%
X15890000Y6430000D03*
X10110000Y6430000D03*
D22*
X16350000Y7495000D03*
X15550000Y7495000D03*
X14250000Y7495000D03*
X13250000Y7495000D03*
X12750000Y7495000D03*
X11750000Y7495000D03*
X10450000Y7495000D03*
X9650000Y7495000D03*
X9950000Y7495000D03*
X10750000Y7495000D03*
X11250000Y7495000D03*
X12250000Y7495000D03*
X13750000Y7495000D03*
X14750000Y7495000D03*
X15250000Y7495000D03*
X16050000Y7495000D03*
D23*
X17320000Y2750000D03*
D24*
X17320000Y6930000D03*
D23*
X8680000Y2750000D03*
D24*
X8680000Y6930000D03*
%TD*%
M02*
