M48
; DRILL file {KiCad 7.0.7} date Mon Nov 27 18:28:31 2023
; FORMAT={-:-/ absolute / metric / decimal}
; #@! TF.CreationDate,2023-11-27T18:28:31+03:00
; #@! TF.GenerationSoftware,Kicad,Pcbnew,7.0.7
; #@! TF.FileFunction,Plated,1,2,PTH
FMAT,2
METRIC
; #@! TA.AperFunction,Plated,PTH,ViaDrill
T1C0.400
; #@! TA.AperFunction,Plated,PTH,ComponentDrill
T2C0.600
; #@! TA.AperFunction,Plated,PTH,ComponentDrill
T3C0.900
; #@! TA.AperFunction,Plated,PTH,ComponentDrill
T4C1.000
%
G90
G05
T1
X-1.0Y15.0
X-1.0Y7.0
X-0.8Y31.2
X-0.3Y29.875
X-0.3Y12.6
X-0.2Y46.1
X0.0Y65.0
X0.0Y60.0
X0.0Y55.0
X0.08Y9.7
X0.5Y34.4
X0.75Y38.75
X1.5Y20.6
X1.805Y9.6
X2.4Y57.1
X3.2Y36.3
X3.8Y48.4
X4.0Y16.1
X4.7Y33.1
X4.7Y23.8
X5.0Y5.0
X5.25Y60.6
X6.0Y1.0
X6.2Y29.875
X6.6Y23.1
X7.0Y57.3
X7.2Y9.5
X7.6Y19.4
X7.8Y54.2
X8.199Y39.7
X8.199Y36.671
X8.2Y38.7
X8.2Y37.7
X8.8Y14.3
X9.0Y45.5
X9.4Y33.9
X9.5Y30.874
X10.0Y65.0
X10.0Y1.0
X10.1Y20.0
X10.3Y60.6
X11.0Y42.3
X11.025Y49.2
X11.3Y5.2
X11.4Y55.0
X11.525Y22.3
X11.75Y9.0
X12.0Y27.8
X12.2Y56.4
X12.3Y5.2
X12.5Y10.1
X13.025Y16.0
X13.025Y11.2
X13.1Y23.7
X13.2Y38.0
X13.3Y58.5
X13.3Y32.57
X13.3Y31.1
X13.4Y36.4
X13.5Y10.1
X13.835Y48.3
X13.925Y29.875
X14.099Y35.583
X14.25Y9.0
X14.4Y39.8
X14.812Y19.2
X15.0Y1.0
X15.1Y43.875
X15.7Y15.5
X16.0Y21.0
X16.2Y37.7
X16.472Y31.871
X16.6Y29.375
X16.637Y19.2
X16.8Y27.4
X17.236Y32.515
X18.1Y42.7
X18.1Y24.4
X18.1Y10.9
X18.3Y60.6
X18.3Y18.2
X18.695Y27.3
X18.7Y51.275
X19.0Y23.7
X19.0Y22.7
X19.0Y1.0
X19.1Y56.7
X19.1Y52.2
X19.3Y65.22
X19.5Y36.0
X20.0Y5.0
X20.2Y32.8
X20.3Y31.6
X20.58Y30.18
X20.7Y41.8
X20.8Y27.9
X20.993Y35.999
X21.2Y37.837
X21.993Y36.007
X22.0Y57.9
X22.0Y28.1
X22.137Y29.612
X22.6Y22.8
X23.0Y9.0
X23.147Y21.0
X23.8Y14.5
X24.242Y42.5
X24.5Y23.875
X24.942Y29.513
X25.0Y65.0
X25.0Y60.0
X25.0Y55.0
X25.0Y27.375
X25.125Y11.1
X25.641Y30.375
X26.4Y36.1
X26.65Y21.0
X27.0Y65.0
X27.0Y62.0
X27.0Y59.0
X27.0Y56.0
X27.0Y53.0
X27.0Y50.0
X27.0Y47.0
X27.0Y44.0
X27.0Y41.0
X27.0Y24.0
X27.0Y16.0
X27.0Y10.0
X27.0Y7.0
X27.1Y32.7
T3
X1.081Y51.395
X5.081Y51.395
T4
X6.575Y17.175
X6.575Y14.635
X6.575Y12.095
X20.475Y17.195
X20.475Y14.655
X21.925Y53.325
X21.925Y50.785
X21.925Y48.245
X21.925Y45.705
X21.925Y43.165
X21.925Y40.625
T2
G00X8.68Y6.38
M15
G01X8.68Y7.48
M16
G05
G00X8.68Y2.45
M15
G01X8.68Y3.05
M16
G05
G00X17.32Y6.38
M15
G01X17.32Y7.48
M16
G05
G00X17.32Y2.45
M15
G01X17.32Y3.05
M16
G05
T0
M30
