%TF.GenerationSoftware,KiCad,Pcbnew,7.0.7*%
%TF.CreationDate,2023-11-27T18:28:25+03:00*%
%TF.ProjectId,Alatyr,416c6174-7972-42e6-9b69-6361645f7063,rev?*%
%TF.SameCoordinates,PX6422c40PY6146580*%
%TF.FileFunction,Legend,Bot*%
%TF.FilePolarity,Positive*%
%FSLAX46Y46*%
G04 Gerber Fmt 4.6, Leading zero omitted, Abs format (unit mm)*
G04 Created by KiCad (PCBNEW 7.0.7) date 2023-11-27 18:28:25*
%MOMM*%
%LPD*%
G01*
G04 APERTURE LIST*
%ADD10C,0.150000*%
%ADD11C,0.120000*%
%ADD12C,0.200000*%
G04 APERTURE END LIST*
D10*
X9058458Y17632693D02*
X9487030Y17632693D01*
X9487030Y17632693D02*
X9529887Y17204122D01*
X9529887Y17204122D02*
X9487030Y17246979D01*
X9487030Y17246979D02*
X9401316Y17289836D01*
X9401316Y17289836D02*
X9187030Y17289836D01*
X9187030Y17289836D02*
X9101316Y17246979D01*
X9101316Y17246979D02*
X9058458Y17204122D01*
X9058458Y17204122D02*
X9015601Y17118408D01*
X9015601Y17118408D02*
X9015601Y16904122D01*
X9015601Y16904122D02*
X9058458Y16818408D01*
X9058458Y16818408D02*
X9101316Y16775550D01*
X9101316Y16775550D02*
X9187030Y16732693D01*
X9187030Y16732693D02*
X9401316Y16732693D01*
X9401316Y16732693D02*
X9487030Y16775550D01*
X9487030Y16775550D02*
X9529887Y16818408D01*
X8758458Y17632693D02*
X8458458Y16732693D01*
X8458458Y16732693D02*
X8158458Y17632693D01*
X10129886Y14192693D02*
X10129886Y15092693D01*
X10129886Y15092693D02*
X9915600Y15092693D01*
X9915600Y15092693D02*
X9787029Y15049836D01*
X9787029Y15049836D02*
X9701314Y14964122D01*
X9701314Y14964122D02*
X9658457Y14878408D01*
X9658457Y14878408D02*
X9615600Y14706979D01*
X9615600Y14706979D02*
X9615600Y14578408D01*
X9615600Y14578408D02*
X9658457Y14406979D01*
X9658457Y14406979D02*
X9701314Y14321265D01*
X9701314Y14321265D02*
X9787029Y14235550D01*
X9787029Y14235550D02*
X9915600Y14192693D01*
X9915600Y14192693D02*
X10129886Y14192693D01*
X9229886Y14192693D02*
X9229886Y15092693D01*
X8801315Y14192693D02*
X8801315Y15092693D01*
X8801315Y15092693D02*
X8287029Y14192693D01*
X8287029Y14192693D02*
X8287029Y15092693D01*
X18829887Y17009836D02*
X18401316Y17009836D01*
X18915601Y16752693D02*
X18615601Y17652693D01*
X18615601Y17652693D02*
X18315601Y16752693D01*
X18015601Y16752693D02*
X18015601Y17652693D01*
X17501315Y16752693D02*
X17887029Y17266979D01*
X17501315Y17652693D02*
X18015601Y17138408D01*
X16815601Y17224122D02*
X16687029Y17181265D01*
X16687029Y17181265D02*
X16644172Y17138408D01*
X16644172Y17138408D02*
X16601315Y17052693D01*
X16601315Y17052693D02*
X16601315Y16924122D01*
X16601315Y16924122D02*
X16644172Y16838408D01*
X16644172Y16838408D02*
X16687029Y16795550D01*
X16687029Y16795550D02*
X16772744Y16752693D01*
X16772744Y16752693D02*
X17115601Y16752693D01*
X17115601Y16752693D02*
X17115601Y17652693D01*
X17115601Y17652693D02*
X16815601Y17652693D01*
X16815601Y17652693D02*
X16729887Y17609836D01*
X16729887Y17609836D02*
X16687029Y17566979D01*
X16687029Y17566979D02*
X16644172Y17481265D01*
X16644172Y17481265D02*
X16644172Y17395550D01*
X16644172Y17395550D02*
X16687029Y17309836D01*
X16687029Y17309836D02*
X16729887Y17266979D01*
X16729887Y17266979D02*
X16815601Y17224122D01*
X16815601Y17224122D02*
X17115601Y17224122D01*
X16215601Y17095550D02*
X15529887Y17095550D01*
X18829887Y14469836D02*
X18401316Y14469836D01*
X18915601Y14212693D02*
X18615601Y15112693D01*
X18615601Y15112693D02*
X18315601Y14212693D01*
X18015601Y14212693D02*
X18015601Y15112693D01*
X17501315Y14212693D02*
X17887029Y14726979D01*
X17501315Y15112693D02*
X18015601Y14598408D01*
X16815601Y14684122D02*
X16687029Y14641265D01*
X16687029Y14641265D02*
X16644172Y14598408D01*
X16644172Y14598408D02*
X16601315Y14512693D01*
X16601315Y14512693D02*
X16601315Y14384122D01*
X16601315Y14384122D02*
X16644172Y14298408D01*
X16644172Y14298408D02*
X16687029Y14255550D01*
X16687029Y14255550D02*
X16772744Y14212693D01*
X16772744Y14212693D02*
X17115601Y14212693D01*
X17115601Y14212693D02*
X17115601Y15112693D01*
X17115601Y15112693D02*
X16815601Y15112693D01*
X16815601Y15112693D02*
X16729887Y15069836D01*
X16729887Y15069836D02*
X16687029Y15026979D01*
X16687029Y15026979D02*
X16644172Y14941265D01*
X16644172Y14941265D02*
X16644172Y14855550D01*
X16644172Y14855550D02*
X16687029Y14769836D01*
X16687029Y14769836D02*
X16729887Y14726979D01*
X16729887Y14726979D02*
X16815601Y14684122D01*
X16815601Y14684122D02*
X17115601Y14684122D01*
X16215601Y14555550D02*
X15529887Y14555550D01*
X15872744Y14212693D02*
X15872744Y14898408D01*
X10129886Y12509836D02*
X10215601Y12552693D01*
X10215601Y12552693D02*
X10344172Y12552693D01*
X10344172Y12552693D02*
X10472743Y12509836D01*
X10472743Y12509836D02*
X10558458Y12424122D01*
X10558458Y12424122D02*
X10601315Y12338408D01*
X10601315Y12338408D02*
X10644172Y12166979D01*
X10644172Y12166979D02*
X10644172Y12038408D01*
X10644172Y12038408D02*
X10601315Y11866979D01*
X10601315Y11866979D02*
X10558458Y11781265D01*
X10558458Y11781265D02*
X10472743Y11695550D01*
X10472743Y11695550D02*
X10344172Y11652693D01*
X10344172Y11652693D02*
X10258458Y11652693D01*
X10258458Y11652693D02*
X10129886Y11695550D01*
X10129886Y11695550D02*
X10087029Y11738408D01*
X10087029Y11738408D02*
X10087029Y12038408D01*
X10087029Y12038408D02*
X10258458Y12038408D01*
X9701315Y11652693D02*
X9701315Y12552693D01*
X9701315Y12552693D02*
X9187029Y11652693D01*
X9187029Y11652693D02*
X9187029Y12552693D01*
X8758458Y11652693D02*
X8758458Y12552693D01*
X8758458Y12552693D02*
X8544172Y12552693D01*
X8544172Y12552693D02*
X8415601Y12509836D01*
X8415601Y12509836D02*
X8329886Y12424122D01*
X8329886Y12424122D02*
X8287029Y12338408D01*
X8287029Y12338408D02*
X8244172Y12166979D01*
X8244172Y12166979D02*
X8244172Y12038408D01*
X8244172Y12038408D02*
X8287029Y11866979D01*
X8287029Y11866979D02*
X8329886Y11781265D01*
X8329886Y11781265D02*
X8415601Y11695550D01*
X8415601Y11695550D02*
X8544172Y11652693D01*
X8544172Y11652693D02*
X8758458Y11652693D01*
X21784523Y12870181D02*
X21117857Y11870181D01*
X21117857Y12870181D02*
X21784523Y11870181D01*
X20736904Y11870181D02*
X20736904Y12870181D01*
X20736904Y12870181D02*
X20355952Y12870181D01*
X20355952Y12870181D02*
X20260714Y12822562D01*
X20260714Y12822562D02*
X20213095Y12774943D01*
X20213095Y12774943D02*
X20165476Y12679705D01*
X20165476Y12679705D02*
X20165476Y12536848D01*
X20165476Y12536848D02*
X20213095Y12441610D01*
X20213095Y12441610D02*
X20260714Y12393991D01*
X20260714Y12393991D02*
X20355952Y12346372D01*
X20355952Y12346372D02*
X20736904Y12346372D01*
X19213095Y11870181D02*
X19784523Y11870181D01*
X19498809Y11870181D02*
X19498809Y12870181D01*
X19498809Y12870181D02*
X19594047Y12727324D01*
X19594047Y12727324D02*
X19689285Y12632086D01*
X19689285Y12632086D02*
X19784523Y12584467D01*
X9737499Y10542158D02*
X9780356Y10499300D01*
X9780356Y10499300D02*
X9908928Y10456443D01*
X9908928Y10456443D02*
X9994642Y10456443D01*
X9994642Y10456443D02*
X10123213Y10499300D01*
X10123213Y10499300D02*
X10208928Y10585015D01*
X10208928Y10585015D02*
X10251785Y10670729D01*
X10251785Y10670729D02*
X10294642Y10842158D01*
X10294642Y10842158D02*
X10294642Y10970729D01*
X10294642Y10970729D02*
X10251785Y11142158D01*
X10251785Y11142158D02*
X10208928Y11227872D01*
X10208928Y11227872D02*
X10123213Y11313586D01*
X10123213Y11313586D02*
X9994642Y11356443D01*
X9994642Y11356443D02*
X9908928Y11356443D01*
X9908928Y11356443D02*
X9780356Y11313586D01*
X9780356Y11313586D02*
X9737499Y11270729D01*
X8880356Y10456443D02*
X9394642Y10456443D01*
X9137499Y10456443D02*
X9137499Y11356443D01*
X9137499Y11356443D02*
X9223213Y11227872D01*
X9223213Y11227872D02*
X9308928Y11142158D01*
X9308928Y11142158D02*
X9394642Y11099300D01*
X7684523Y10450181D02*
X7017857Y9450181D01*
X7017857Y10450181D02*
X7684523Y9450181D01*
X6636904Y9450181D02*
X6636904Y10450181D01*
X6636904Y10450181D02*
X6255952Y10450181D01*
X6255952Y10450181D02*
X6160714Y10402562D01*
X6160714Y10402562D02*
X6113095Y10354943D01*
X6113095Y10354943D02*
X6065476Y10259705D01*
X6065476Y10259705D02*
X6065476Y10116848D01*
X6065476Y10116848D02*
X6113095Y10021610D01*
X6113095Y10021610D02*
X6160714Y9973991D01*
X6160714Y9973991D02*
X6255952Y9926372D01*
X6255952Y9926372D02*
X6636904Y9926372D01*
X5732142Y10450181D02*
X5113095Y10450181D01*
X5113095Y10450181D02*
X5446428Y10069229D01*
X5446428Y10069229D02*
X5303571Y10069229D01*
X5303571Y10069229D02*
X5208333Y10021610D01*
X5208333Y10021610D02*
X5160714Y9973991D01*
X5160714Y9973991D02*
X5113095Y9878753D01*
X5113095Y9878753D02*
X5113095Y9640658D01*
X5113095Y9640658D02*
X5160714Y9545420D01*
X5160714Y9545420D02*
X5208333Y9497800D01*
X5208333Y9497800D02*
X5303571Y9450181D01*
X5303571Y9450181D02*
X5589285Y9450181D01*
X5589285Y9450181D02*
X5684523Y9497800D01*
X5684523Y9497800D02*
X5732142Y9545420D01*
X8099999Y63154300D02*
X7971428Y63111443D01*
X7971428Y63111443D02*
X7757142Y63111443D01*
X7757142Y63111443D02*
X7671428Y63154300D01*
X7671428Y63154300D02*
X7628570Y63197158D01*
X7628570Y63197158D02*
X7585713Y63282872D01*
X7585713Y63282872D02*
X7585713Y63368586D01*
X7585713Y63368586D02*
X7628570Y63454300D01*
X7628570Y63454300D02*
X7671428Y63497158D01*
X7671428Y63497158D02*
X7757142Y63540015D01*
X7757142Y63540015D02*
X7928570Y63582872D01*
X7928570Y63582872D02*
X8014285Y63625729D01*
X8014285Y63625729D02*
X8057142Y63668586D01*
X8057142Y63668586D02*
X8099999Y63754300D01*
X8099999Y63754300D02*
X8099999Y63840015D01*
X8099999Y63840015D02*
X8057142Y63925729D01*
X8057142Y63925729D02*
X8014285Y63968586D01*
X8014285Y63968586D02*
X7928570Y64011443D01*
X7928570Y64011443D02*
X7714285Y64011443D01*
X7714285Y64011443D02*
X7585713Y63968586D01*
X7285713Y64011443D02*
X7071427Y63111443D01*
X7071427Y63111443D02*
X6899999Y63754300D01*
X6899999Y63754300D02*
X6728570Y63111443D01*
X6728570Y63111443D02*
X6514285Y64011443D01*
X5699999Y63111443D02*
X6214285Y63111443D01*
X5957142Y63111443D02*
X5957142Y64011443D01*
X5957142Y64011443D02*
X6042856Y63882872D01*
X6042856Y63882872D02*
X6128571Y63797158D01*
X6128571Y63797158D02*
X6214285Y63754300D01*
X26917857Y60012872D02*
X26789285Y59970015D01*
X26789285Y59970015D02*
X26746428Y59927158D01*
X26746428Y59927158D02*
X26703571Y59841443D01*
X26703571Y59841443D02*
X26703571Y59712872D01*
X26703571Y59712872D02*
X26746428Y59627158D01*
X26746428Y59627158D02*
X26789285Y59584300D01*
X26789285Y59584300D02*
X26875000Y59541443D01*
X26875000Y59541443D02*
X27217857Y59541443D01*
X27217857Y59541443D02*
X27217857Y60441443D01*
X27217857Y60441443D02*
X26917857Y60441443D01*
X26917857Y60441443D02*
X26832143Y60398586D01*
X26832143Y60398586D02*
X26789285Y60355729D01*
X26789285Y60355729D02*
X26746428Y60270015D01*
X26746428Y60270015D02*
X26746428Y60184300D01*
X26746428Y60184300D02*
X26789285Y60098586D01*
X26789285Y60098586D02*
X26832143Y60055729D01*
X26832143Y60055729D02*
X26917857Y60012872D01*
X26917857Y60012872D02*
X27217857Y60012872D01*
X26360714Y59798586D02*
X25932143Y59798586D01*
X26446428Y59541443D02*
X26146428Y60441443D01*
X26146428Y60441443D02*
X25846428Y59541443D01*
X25674999Y60441443D02*
X25160714Y60441443D01*
X25417856Y59541443D02*
X25417856Y60441443D01*
X24389285Y59541443D02*
X24903571Y59541443D01*
X24646428Y59541443D02*
X24646428Y60441443D01*
X24646428Y60441443D02*
X24732142Y60312872D01*
X24732142Y60312872D02*
X24817857Y60227158D01*
X24817857Y60227158D02*
X24903571Y60184300D01*
X19062499Y9282158D02*
X19105356Y9239300D01*
X19105356Y9239300D02*
X19233928Y9196443D01*
X19233928Y9196443D02*
X19319642Y9196443D01*
X19319642Y9196443D02*
X19448213Y9239300D01*
X19448213Y9239300D02*
X19533928Y9325015D01*
X19533928Y9325015D02*
X19576785Y9410729D01*
X19576785Y9410729D02*
X19619642Y9582158D01*
X19619642Y9582158D02*
X19619642Y9710729D01*
X19619642Y9710729D02*
X19576785Y9882158D01*
X19576785Y9882158D02*
X19533928Y9967872D01*
X19533928Y9967872D02*
X19448213Y10053586D01*
X19448213Y10053586D02*
X19319642Y10096443D01*
X19319642Y10096443D02*
X19233928Y10096443D01*
X19233928Y10096443D02*
X19105356Y10053586D01*
X19105356Y10053586D02*
X19062499Y10010729D01*
X18719642Y10010729D02*
X18676785Y10053586D01*
X18676785Y10053586D02*
X18591071Y10096443D01*
X18591071Y10096443D02*
X18376785Y10096443D01*
X18376785Y10096443D02*
X18291071Y10053586D01*
X18291071Y10053586D02*
X18248213Y10010729D01*
X18248213Y10010729D02*
X18205356Y9925015D01*
X18205356Y9925015D02*
X18205356Y9839300D01*
X18205356Y9839300D02*
X18248213Y9710729D01*
X18248213Y9710729D02*
X18762499Y9196443D01*
X18762499Y9196443D02*
X18205356Y9196443D01*
X14103841Y16911053D02*
X13803841Y16011053D01*
X13803841Y16011053D02*
X13503841Y16911053D01*
X13203841Y16011053D02*
X13203841Y16911053D01*
X13203841Y16911053D02*
X12989555Y16911053D01*
X12989555Y16911053D02*
X12860984Y16868196D01*
X12860984Y16868196D02*
X12775269Y16782482D01*
X12775269Y16782482D02*
X12732412Y16696768D01*
X12732412Y16696768D02*
X12689555Y16525339D01*
X12689555Y16525339D02*
X12689555Y16396768D01*
X12689555Y16396768D02*
X12732412Y16225339D01*
X12732412Y16225339D02*
X12775269Y16139625D01*
X12775269Y16139625D02*
X12860984Y16053910D01*
X12860984Y16053910D02*
X12989555Y16011053D01*
X12989555Y16011053D02*
X13203841Y16011053D01*
X11832412Y16011053D02*
X12346698Y16011053D01*
X12089555Y16011053D02*
X12089555Y16911053D01*
X12089555Y16911053D02*
X12175269Y16782482D01*
X12175269Y16782482D02*
X12260984Y16696768D01*
X12260984Y16696768D02*
X12346698Y16653910D01*
X20099999Y63054300D02*
X19971428Y63011443D01*
X19971428Y63011443D02*
X19757142Y63011443D01*
X19757142Y63011443D02*
X19671428Y63054300D01*
X19671428Y63054300D02*
X19628570Y63097158D01*
X19628570Y63097158D02*
X19585713Y63182872D01*
X19585713Y63182872D02*
X19585713Y63268586D01*
X19585713Y63268586D02*
X19628570Y63354300D01*
X19628570Y63354300D02*
X19671428Y63397158D01*
X19671428Y63397158D02*
X19757142Y63440015D01*
X19757142Y63440015D02*
X19928570Y63482872D01*
X19928570Y63482872D02*
X20014285Y63525729D01*
X20014285Y63525729D02*
X20057142Y63568586D01*
X20057142Y63568586D02*
X20099999Y63654300D01*
X20099999Y63654300D02*
X20099999Y63740015D01*
X20099999Y63740015D02*
X20057142Y63825729D01*
X20057142Y63825729D02*
X20014285Y63868586D01*
X20014285Y63868586D02*
X19928570Y63911443D01*
X19928570Y63911443D02*
X19714285Y63911443D01*
X19714285Y63911443D02*
X19585713Y63868586D01*
X19285713Y63911443D02*
X19071427Y63011443D01*
X19071427Y63011443D02*
X18899999Y63654300D01*
X18899999Y63654300D02*
X18728570Y63011443D01*
X18728570Y63011443D02*
X18514285Y63911443D01*
X18214285Y63825729D02*
X18171428Y63868586D01*
X18171428Y63868586D02*
X18085714Y63911443D01*
X18085714Y63911443D02*
X17871428Y63911443D01*
X17871428Y63911443D02*
X17785714Y63868586D01*
X17785714Y63868586D02*
X17742856Y63825729D01*
X17742856Y63825729D02*
X17699999Y63740015D01*
X17699999Y63740015D02*
X17699999Y63654300D01*
X17699999Y63654300D02*
X17742856Y63525729D01*
X17742856Y63525729D02*
X18257142Y63011443D01*
X18257142Y63011443D02*
X17699999Y63011443D01*
X20957142Y8331443D02*
X20357142Y7431443D01*
X20357142Y8331443D02*
X20957142Y7431443D01*
X20057142Y7474300D02*
X19928571Y7431443D01*
X19928571Y7431443D02*
X19714285Y7431443D01*
X19714285Y7431443D02*
X19628571Y7474300D01*
X19628571Y7474300D02*
X19585713Y7517158D01*
X19585713Y7517158D02*
X19542856Y7602872D01*
X19542856Y7602872D02*
X19542856Y7688586D01*
X19542856Y7688586D02*
X19585713Y7774300D01*
X19585713Y7774300D02*
X19628571Y7817158D01*
X19628571Y7817158D02*
X19714285Y7860015D01*
X19714285Y7860015D02*
X19885713Y7902872D01*
X19885713Y7902872D02*
X19971428Y7945729D01*
X19971428Y7945729D02*
X20014285Y7988586D01*
X20014285Y7988586D02*
X20057142Y8074300D01*
X20057142Y8074300D02*
X20057142Y8160015D01*
X20057142Y8160015D02*
X20014285Y8245729D01*
X20014285Y8245729D02*
X19971428Y8288586D01*
X19971428Y8288586D02*
X19885713Y8331443D01*
X19885713Y8331443D02*
X19671428Y8331443D01*
X19671428Y8331443D02*
X19542856Y8288586D01*
X18685713Y7431443D02*
X19199999Y7431443D01*
X18942856Y7431443D02*
X18942856Y8331443D01*
X18942856Y8331443D02*
X19028570Y8202872D01*
X19028570Y8202872D02*
X19114285Y8117158D01*
X19114285Y8117158D02*
X19199999Y8074300D01*
D11*
%TO.C,XP1*%
X19145000Y18525000D02*
X21805000Y18525000D01*
X19145000Y15925000D02*
X19145000Y18525000D01*
X19145000Y15925000D02*
X21805000Y15925000D01*
X19145000Y14655000D02*
X19145000Y13325000D01*
X19145000Y13325000D02*
X20475000Y13325000D01*
X21805000Y15925000D02*
X21805000Y18525000D01*
%TO.C,C1*%
X9733767Y9025000D02*
X9441233Y9025000D01*
X9733767Y10045000D02*
X9441233Y10045000D01*
%TO.C,XP3*%
X7905000Y10765000D02*
X5245000Y10765000D01*
X7905000Y15905000D02*
X7905000Y10765000D01*
X7905000Y15905000D02*
X5245000Y15905000D01*
X7905000Y17175000D02*
X7905000Y18505000D01*
X7905000Y18505000D02*
X6575000Y18505000D01*
X5245000Y15905000D02*
X5245000Y10765000D01*
D10*
%TO.C,SW1*%
X3000000Y62270000D02*
X3000000Y64770000D01*
X5300000Y62270000D02*
X5300000Y64770000D01*
X1800000Y62520000D02*
X1800000Y64520000D01*
X3000000Y62520000D02*
X1800000Y62520000D01*
X1800000Y64520000D02*
X3000000Y64520000D01*
D12*
%TO.C,BAT1*%
X28025000Y59050000D02*
X-1975000Y59050000D01*
X-1975000Y59050000D02*
X-1975000Y19050000D01*
X-1975000Y19050000D02*
X28025000Y19050000D01*
X28025000Y19050000D02*
X28025000Y59050000D01*
D11*
%TO.C,C2*%
X16266233Y10045000D02*
X16558767Y10045000D01*
X16266233Y9025000D02*
X16558767Y9025000D01*
%TO.C,VD1*%
X11465270Y13519610D02*
X11465270Y12719610D01*
X11465270Y13519610D02*
X11465270Y14319610D01*
X14585270Y13519610D02*
X14585270Y11719610D01*
X14585270Y13519610D02*
X14585270Y14319610D01*
D10*
%TO.C,SW2*%
X22900000Y64770000D02*
X22900000Y62270000D01*
X20600000Y64770000D02*
X20600000Y62270000D01*
X24100000Y64520000D02*
X24100000Y62520000D01*
X22900000Y64520000D02*
X24100000Y64520000D01*
X24100000Y62520000D02*
X22900000Y62520000D01*
D11*
%TO.C,XS1*%
X17580000Y40000D02*
X17580000Y1745000D01*
X17580000Y5675000D02*
X17580000Y3755000D01*
X8420000Y40000D02*
X17580000Y40000D01*
X8420000Y1745000D02*
X8420000Y40000D01*
X8420000Y3755000D02*
X8420000Y5675000D01*
%TD*%
M02*
