%TF.GenerationSoftware,KiCad,Pcbnew,7.0.7*%
%TF.CreationDate,2023-11-27T18:28:25+03:00*%
%TF.ProjectId,Alatyr,416c6174-7972-42e6-9b69-6361645f7063,rev?*%
%TF.SameCoordinates,PX6422c40PY6146580*%
%TF.FileFunction,Copper,L2,Bot*%
%TF.FilePolarity,Positive*%
%FSLAX46Y46*%
G04 Gerber Fmt 4.6, Leading zero omitted, Abs format (unit mm)*
G04 Created by KiCad (PCBNEW 7.0.7) date 2023-11-27 18:28:25*
%MOMM*%
%LPD*%
G01*
G04 APERTURE LIST*
G04 Aperture macros list*
%AMRoundRect*
0 Rectangle with rounded corners*
0 $1 Rounding radius*
0 $2 $3 $4 $5 $6 $7 $8 $9 X,Y pos of 4 corners*
0 Add a 4 corners polygon primitive as box body*
4,1,4,$2,$3,$4,$5,$6,$7,$8,$9,$2,$3,0*
0 Add four circle primitives for the rounded corners*
1,1,$1+$1,$2,$3*
1,1,$1+$1,$4,$5*
1,1,$1+$1,$6,$7*
1,1,$1+$1,$8,$9*
0 Add four rect primitives between the rounded corners*
20,1,$1+$1,$2,$3,$4,$5,0*
20,1,$1+$1,$4,$5,$6,$7,0*
20,1,$1+$1,$6,$7,$8,$9,0*
20,1,$1+$1,$8,$9,$2,$3,0*%
G04 Aperture macros list end*
%TA.AperFunction,ComponentPad*%
%ADD10R,1.600000X1.600000*%
%TD*%
%TA.AperFunction,ComponentPad*%
%ADD11C,1.600000*%
%TD*%
%TA.AperFunction,ComponentPad*%
%ADD12R,1.700000X1.700000*%
%TD*%
%TA.AperFunction,ComponentPad*%
%ADD13O,1.700000X1.700000*%
%TD*%
%TA.AperFunction,SMDPad,CuDef*%
%ADD14RoundRect,0.237500X0.300000X0.237500X-0.300000X0.237500X-0.300000X-0.237500X0.300000X-0.237500X0*%
%TD*%
%TA.AperFunction,SMDPad,CuDef*%
%ADD15R,1.100000X0.700000*%
%TD*%
%TA.AperFunction,SMDPad,CuDef*%
%ADD16R,1.000000X1.100000*%
%TD*%
%TA.AperFunction,SMDPad,CuDef*%
%ADD17RoundRect,0.237500X-0.300000X-0.237500X0.300000X-0.237500X0.300000X0.237500X-0.300000X0.237500X0*%
%TD*%
%TA.AperFunction,SMDPad,CuDef*%
%ADD18RoundRect,0.150000X0.150000X-0.512500X0.150000X0.512500X-0.150000X0.512500X-0.150000X-0.512500X0*%
%TD*%
%TA.AperFunction,SMDPad,CuDef*%
%ADD19R,0.300000X1.150000*%
%TD*%
%TA.AperFunction,ComponentPad*%
%ADD20O,1.000000X1.600000*%
%TD*%
%TA.AperFunction,ComponentPad*%
%ADD21O,1.000000X2.100000*%
%TD*%
%TA.AperFunction,ViaPad*%
%ADD22C,0.800000*%
%TD*%
%TA.AperFunction,Conductor*%
%ADD23C,0.500000*%
%TD*%
%TA.AperFunction,Conductor*%
%ADD24C,0.300000*%
%TD*%
%TA.AperFunction,Conductor*%
%ADD25C,0.200000*%
%TD*%
G04 APERTURE END LIST*
D10*
%TO.P,HA1,1,-*%
%TO.N,/Unst.power*%
X1080723Y51395000D03*
D11*
%TO.P,HA1,2,+*%
%TO.N,Net-(HA1-+)*%
X5080723Y51395000D03*
%TD*%
D12*
%TO.P,XP2,1,Pin_1*%
%TO.N,/UART.Cmd_RX*%
X21925000Y53325000D03*
D13*
%TO.P,XP2,2,Pin_2*%
%TO.N,/UART.Cmd_TX*%
X21925000Y50785000D03*
%TO.P,XP2,3,Pin_3*%
%TO.N,/SWDIO*%
X21925000Y48245000D03*
%TO.P,XP2,4,Pin_4*%
%TO.N,GND*%
X21925000Y45705000D03*
%TO.P,XP2,5,Pin_5*%
%TO.N,/SWCLK*%
X21925000Y43165000D03*
%TO.P,XP2,6,Pin_6*%
%TO.N,+3V3*%
X21925000Y40625000D03*
%TD*%
D12*
%TO.P,XP1,1,Pin_1*%
%TO.N,/AKB*%
X20475000Y14655000D03*
D13*
%TO.P,XP1,2,Pin_2*%
%TO.N,GND*%
X20475000Y17195000D03*
%TD*%
D14*
%TO.P,C1,1*%
%TO.N,/USB.power*%
X10450000Y9535000D03*
%TO.P,C1,2*%
%TO.N,GND*%
X8725000Y9535000D03*
%TD*%
D12*
%TO.P,XP3,1,Pin_1*%
%TO.N,/5V*%
X6575000Y17175000D03*
D13*
%TO.P,XP3,2,Pin_2*%
%TO.N,/NPX.D5V*%
X6575000Y14635000D03*
%TO.P,XP3,3,Pin_3*%
%TO.N,GND*%
X6575000Y12095000D03*
%TD*%
D15*
%TO.P,SW1,1,1*%
%TO.N,GND*%
X5250000Y61820000D03*
%TO.P,SW1,2,2*%
%TO.N,/BUT1*%
X5250000Y65220000D03*
D16*
%TO.P,SW1,H*%
%TO.N,N/C*%
X3400000Y61420000D03*
X3400000Y65620000D03*
%TD*%
D17*
%TO.P,C2,1*%
%TO.N,/USB.power*%
X15550000Y9535000D03*
%TO.P,C2,2*%
%TO.N,GND*%
X17275000Y9535000D03*
%TD*%
D18*
%TO.P,VD1,1,I/O1*%
%TO.N,/D+*%
X13975270Y12382110D03*
%TO.P,VD1,2,GND*%
%TO.N,GND*%
X13025270Y12382110D03*
%TO.P,VD1,3,I/O2*%
%TO.N,/D-*%
X12075270Y12382110D03*
%TO.P,VD1,4,I/O2*%
%TO.N,/USB.D-*%
X12075270Y14657110D03*
%TO.P,VD1,5,Vbus*%
%TO.N,/USB.power*%
X13025270Y14657110D03*
%TO.P,VD1,6,I/O1*%
%TO.N,/USB.D+*%
X13975270Y14657110D03*
%TD*%
D15*
%TO.P,SW2,1,1*%
%TO.N,GND*%
X20650000Y65220000D03*
%TO.P,SW2,2,2*%
%TO.N,/BUT2*%
X20650000Y61820000D03*
D16*
%TO.P,SW2,H*%
%TO.N,N/C*%
X22500000Y65620000D03*
X22500000Y61420000D03*
%TD*%
D19*
%TO.P,XS1,A1,GND*%
%TO.N,GND*%
X16350000Y7495000D03*
%TO.P,XS1,A4,VBUS*%
%TO.N,/USB.power*%
X15550000Y7495000D03*
%TO.P,XS1,A5,CC1*%
%TO.N,Net-(XS1-CC1)*%
X14250000Y7495000D03*
%TO.P,XS1,A6,D+*%
%TO.N,/D+*%
X13250000Y7495000D03*
%TO.P,XS1,A7,D-*%
%TO.N,/D-*%
X12750000Y7495000D03*
%TO.P,XS1,A8,SBU1*%
%TO.N,unconnected-(XS1-SBU1-PadA8)*%
X11750000Y7495000D03*
%TO.P,XS1,A9,VBUS*%
%TO.N,/USB.power*%
X10450000Y7495000D03*
%TO.P,XS1,A12,GND*%
%TO.N,GND*%
X9650000Y7495000D03*
%TO.P,XS1,B1,GND*%
X9950000Y7495000D03*
%TO.P,XS1,B4,VBUS*%
%TO.N,/USB.power*%
X10750000Y7495000D03*
%TO.P,XS1,B5,CC2*%
%TO.N,Net-(XS1-CC2)*%
X11250000Y7495000D03*
%TO.P,XS1,B6,D+*%
%TO.N,/D+*%
X12250000Y7495000D03*
%TO.P,XS1,B7,D-*%
%TO.N,/D-*%
X13750000Y7495000D03*
%TO.P,XS1,B8,SBU2*%
%TO.N,unconnected-(XS1-SBU2-PadB8)*%
X14750000Y7495000D03*
%TO.P,XS1,B9,VBUS*%
%TO.N,/USB.power*%
X15250000Y7495000D03*
%TO.P,XS1,B12,GND*%
%TO.N,GND*%
X16050000Y7495000D03*
D20*
%TO.P,XS1,S1,SHIELD*%
%TO.N,unconnected-(XS1-SHIELD-PadS1)*%
X17320000Y2750000D03*
D21*
X17320000Y6930000D03*
D20*
X8680000Y2750000D03*
D21*
X8680000Y6930000D03*
%TD*%
D22*
%TO.N,GND*%
X12000000Y27800000D03*
X27000000Y50000000D03*
X0Y55000000D03*
X27000000Y59000000D03*
X7800000Y54200000D03*
X0Y65000000D03*
X20700000Y41800000D03*
X27000000Y10000000D03*
X3200000Y36300000D03*
X10100000Y20000000D03*
X8800000Y14300000D03*
X27000000Y24000000D03*
X2400000Y57100000D03*
X3800000Y48400000D03*
X25000000Y55000000D03*
X23000000Y9000000D03*
X-200000Y46100000D03*
X7200000Y9500000D03*
X13300000Y58500000D03*
X80000Y9700000D03*
X27000000Y44000000D03*
X19100000Y56700000D03*
X22000000Y57900000D03*
X11400000Y55000000D03*
X16000000Y21000000D03*
X16800000Y27400000D03*
X500000Y34400000D03*
X18100000Y10900000D03*
X22000000Y28100000D03*
X4000000Y16100000D03*
X18100000Y24400000D03*
X-1000000Y15000000D03*
X18300000Y60600000D03*
X21200000Y37837500D03*
X6600000Y23100000D03*
X16200000Y37700000D03*
X9400000Y33900000D03*
X9000000Y45500000D03*
X14400000Y39800000D03*
X15000000Y1000000D03*
X5000000Y5000000D03*
X15100000Y43875000D03*
X19300000Y65220000D03*
X23147500Y21000000D03*
X7000000Y57300000D03*
X4700000Y33100000D03*
X-800000Y31200000D03*
X11525270Y22300000D03*
X10000000Y1000000D03*
X27000000Y7000000D03*
X27000000Y47000000D03*
X27000000Y62000000D03*
X27100000Y32700000D03*
X5250000Y60600000D03*
X22600000Y22800000D03*
X27000000Y41000000D03*
X25000000Y60000000D03*
X20000000Y5000000D03*
X13025270Y11200000D03*
X27000000Y65000000D03*
X27000000Y56000000D03*
X20300000Y31600000D03*
X27000000Y16000000D03*
X18300000Y18200000D03*
X1500000Y20600000D03*
X18700000Y51275000D03*
X6000000Y1000000D03*
X-1000000Y7000000D03*
X19000000Y1000000D03*
X750000Y38750000D03*
X15700000Y15500000D03*
X27000000Y53000000D03*
X13100000Y23700000D03*
X26650000Y21000000D03*
X11000000Y42300000D03*
X23800000Y14500000D03*
X11025000Y49200000D03*
X10000000Y65000000D03*
X25000000Y65000000D03*
X10300000Y60600000D03*
X0Y60000000D03*
%TO.N,/Unst.power*%
X1805000Y9600000D03*
%TO.N,+3V3*%
X24500000Y23875000D03*
X26400000Y36100000D03*
%TO.N,/OSC_IN*%
X18100000Y42700000D03*
X20200000Y32800000D03*
%TO.N,/OSC_OUT*%
X19500500Y36000000D03*
X13835000Y48300000D03*
%TO.N,/BatADC*%
X16637500Y19200000D03*
X17236421Y32514922D03*
%TO.N,/IS_CHARGING*%
X25125000Y11100000D03*
X22137349Y29611849D03*
%TO.N,/5V_EN*%
X-300000Y12600000D03*
X6200000Y29875000D03*
X13925000Y29875000D03*
X-300000Y29875000D03*
%TO.N,/BUT2*%
X21992523Y36007477D03*
%TO.N,/BUT1*%
X12200000Y56400000D03*
%TO.N,/BLE.TX*%
X14099500Y35583153D03*
X8200000Y38700000D03*
%TO.N,/BLE.RX*%
X8199079Y39700000D03*
X13400000Y36400000D03*
%TO.N,/BLE.PWRC*%
X13300000Y32570473D03*
X8200000Y37700000D03*
%TO.N,/BLE.RST*%
X8199079Y36670609D03*
X16472003Y31870973D03*
%TO.N,/BLE.STATUS*%
X13300000Y31100000D03*
X9500000Y30874138D03*
%TO.N,/USB.D-*%
X19000000Y23700000D03*
%TO.N,/USB.D+*%
X19000000Y22700000D03*
%TO.N,/SWDIO*%
X20800000Y27900000D03*
%TO.N,/SWCLK*%
X24242019Y42500000D03*
X25000000Y27375000D03*
%TO.N,/VIBRO*%
X20993056Y35999104D03*
X19100000Y52200000D03*
%TO.N,/BatADC_EN*%
X14812500Y19200000D03*
X16600000Y29375000D03*
%TO.N,/USB.power*%
X13025270Y16000000D03*
%TO.N,/NPX.D3V*%
X18695000Y27300000D03*
X4700000Y23800000D03*
%TO.N,/BUZZER*%
X20579977Y30179977D03*
X13200000Y38000000D03*
%TO.N,/UART.Cmd_TX*%
X24941519Y29513351D03*
%TO.N,/UART.Cmd_RX*%
X25641019Y30375000D03*
%TO.N,/NPX.D5V*%
X7600000Y19400000D03*
%TO.N,Net-(XS1-CC1)*%
X14250000Y9000000D03*
%TO.N,Net-(XS1-CC2)*%
X11750000Y9000000D03*
%TO.N,/D+*%
X12300000Y5200000D03*
X13500000Y10100000D03*
%TO.N,/D-*%
X11300000Y5200000D03*
X12500000Y10100000D03*
%TD*%
D23*
%TO.N,GND*%
X11885418Y27800000D02*
X12000000Y27800000D01*
X13100000Y23700000D02*
X16800000Y27400000D01*
X14400000Y38360661D02*
X14250000Y38210661D01*
X20805000Y45705000D02*
X21925000Y45705000D01*
X21200000Y37837500D02*
X20500000Y38537500D01*
X23147500Y21000000D02*
X23147500Y18747500D01*
X18700000Y47475000D02*
X15100000Y43875000D01*
X11025000Y49200000D02*
X5250000Y54975000D01*
X14250000Y38210661D02*
X11260661Y41200000D01*
X11260661Y41200000D02*
X7300000Y41200000D01*
X5250000Y61820000D02*
X5250000Y60600000D01*
X5250000Y54975000D02*
X5250000Y60600000D01*
D24*
X16050000Y7495000D02*
X16050000Y8310000D01*
D23*
X9000000Y45500000D02*
X9000000Y44300000D01*
X7905000Y12095000D02*
X8725000Y11275000D01*
X6600000Y23100000D02*
X11525270Y22300000D01*
X20700000Y41800000D02*
X20500000Y42000000D01*
X6575000Y12095000D02*
X7905000Y12095000D01*
D24*
X9950000Y8310000D02*
X8725000Y9535000D01*
D23*
X16037500Y56800000D02*
X16037500Y53937500D01*
X9000000Y45500000D02*
X9000000Y47175000D01*
X10500000Y23300000D02*
X10500000Y26400000D01*
X23400000Y36300000D02*
X23400000Y33600000D01*
X22600000Y21547500D02*
X23147500Y21000000D01*
X21200000Y37837500D02*
X21862500Y37837500D01*
X3200000Y36300000D02*
X3200000Y25700000D01*
X11150000Y27064582D02*
X11885418Y27800000D01*
X17275000Y9535000D02*
X17275000Y10075000D01*
X9000000Y44300000D02*
X11000000Y42300000D01*
X23400000Y33600000D02*
X21400000Y31600000D01*
X20500000Y38537500D02*
X20500000Y41600000D01*
X9700000Y20000000D02*
X6600000Y23100000D01*
X11700000Y22300000D02*
X13100000Y23700000D01*
X19300000Y60062500D02*
X19300000Y65220000D01*
X21862500Y37837500D02*
X23400000Y36300000D01*
X16037500Y56800000D02*
X19300000Y60062500D01*
X80000Y9700000D02*
X1030000Y8750000D01*
X17275000Y10075000D02*
X18100000Y10900000D01*
X22600000Y22800000D02*
X22600000Y21547500D01*
X1030000Y8750000D02*
X6450000Y8750000D01*
X20650000Y65220000D02*
X19300000Y65220000D01*
X7200000Y9500000D02*
X8690000Y9500000D01*
X6600000Y23100000D02*
X3200000Y22300000D01*
X8725000Y11275000D02*
X8725000Y9535000D01*
D24*
X8690000Y9500000D02*
X8725000Y9535000D01*
D23*
X20500000Y41600000D02*
X20700000Y41800000D01*
X14250000Y37450000D02*
X14250000Y38210661D01*
X4000000Y16100000D02*
X4000000Y11500000D01*
X11525270Y22300000D02*
X11700000Y22300000D01*
X11000000Y41460661D02*
X11260661Y41200000D01*
D24*
X13025270Y11200000D02*
X13025270Y12382110D01*
D23*
X6000000Y9500000D02*
X7200000Y9500000D01*
X4000000Y11500000D02*
X6000000Y9500000D01*
X9000000Y47175000D02*
X11025000Y49200000D01*
X3200000Y25700000D02*
X3200000Y22300000D01*
X20300000Y31600000D02*
X20100000Y31600000D01*
D24*
X9650000Y7495000D02*
X9650000Y8610000D01*
D23*
X6450000Y8750000D02*
X7200000Y9500000D01*
D24*
X9950000Y7495000D02*
X9950000Y8310000D01*
D23*
X11000000Y42300000D02*
X11000000Y41460661D01*
X20470000Y17200000D02*
X17400000Y17200000D01*
X11150000Y27050000D02*
X11150000Y27064582D01*
D24*
X9650000Y8610000D02*
X8725000Y9535000D01*
D23*
X20500000Y45400000D02*
X20805000Y45705000D01*
D24*
X16350000Y8610000D02*
X17275000Y9535000D01*
D23*
X23147500Y18747500D02*
X21595000Y17195000D01*
X18700000Y51275000D02*
X18700000Y47475000D01*
X18700000Y51275000D02*
X16625000Y49200000D01*
X8800000Y13000000D02*
X7895000Y12095000D01*
D24*
X16350000Y7495000D02*
X16350000Y8610000D01*
D23*
X17400000Y17200000D02*
X15700000Y15500000D01*
X26700000Y21050000D02*
X26650000Y21000000D01*
X1500000Y20600000D02*
X4000000Y16100000D01*
X7895000Y12095000D02*
X6575000Y12095000D01*
D24*
X16050000Y8310000D02*
X17275000Y9535000D01*
D23*
X8800000Y14300000D02*
X8800000Y13000000D01*
X15700000Y15500000D02*
X18100000Y10900000D01*
X16037500Y53937500D02*
X18700000Y51275000D01*
X10500000Y26400000D02*
X11150000Y27050000D01*
X10100000Y20000000D02*
X9700000Y20000000D01*
X20475000Y17195000D02*
X20470000Y17200000D01*
X20500000Y42000000D02*
X20500000Y45400000D01*
X16625000Y49200000D02*
X11025000Y49200000D01*
X11525270Y22300000D02*
X11500000Y22300000D01*
X14400000Y39800000D02*
X14400000Y38360661D01*
X21400000Y31600000D02*
X20300000Y31600000D01*
X20100000Y31600000D02*
X14250000Y37450000D01*
X7300000Y41200000D02*
X3200000Y37100000D01*
X3200000Y37100000D02*
X3200000Y36300000D01*
X21595000Y17195000D02*
X20475000Y17195000D01*
X3200000Y22300000D02*
X1500000Y20600000D01*
X11500000Y22300000D02*
X10500000Y23300000D01*
%TO.N,/Unst.power*%
X2300000Y22602082D02*
X2300000Y50175723D01*
X2300000Y50175723D02*
X1080723Y51395000D01*
X1805000Y9600000D02*
X650000Y10755000D01*
X650000Y20952082D02*
X2300000Y22602082D01*
X650000Y10755000D02*
X650000Y20952082D01*
%TO.N,+3V3*%
X26191019Y31027082D02*
X26491019Y30727082D01*
X26491019Y25866019D02*
X24500000Y23875000D01*
X26191019Y35891019D02*
X26191019Y31027082D01*
X26400000Y36100000D02*
X26191019Y35891019D01*
X26491019Y30727082D02*
X26491019Y25866019D01*
D25*
%TO.N,/OSC_IN*%
X20200000Y36668628D02*
X18100000Y38768628D01*
X20200000Y32800000D02*
X20200000Y36668628D01*
X18100000Y38768628D02*
X18100000Y42700000D01*
%TO.N,/OSC_OUT*%
X19500500Y36802442D02*
X13835000Y42467942D01*
X19500500Y36000000D02*
X19500500Y36802442D01*
X13835000Y42467942D02*
X13835000Y48300000D01*
%TO.N,/BatADC*%
X21400000Y26205050D02*
X21400000Y23000000D01*
X21400000Y23000000D02*
X17600000Y19200000D01*
X17600000Y19200000D02*
X16637500Y19200000D01*
X17300000Y30305050D02*
X21400000Y26205050D01*
X17300000Y32451343D02*
X17300000Y30305050D01*
X17236421Y32514922D02*
X17300000Y32451343D01*
%TO.N,/IS_CHARGING*%
X23800000Y27949198D02*
X23800000Y23500000D01*
X25125000Y22175000D02*
X25125000Y11100000D01*
X23800000Y23500000D02*
X25125000Y22175000D01*
X22137349Y29611849D02*
X23800000Y27949198D01*
%TO.N,/5V_EN*%
X-300000Y29875000D02*
X-300000Y12600000D01*
X13925000Y29875000D02*
X6200000Y29875000D01*
X13925000Y29875000D02*
X13900000Y29900000D01*
%TO.N,/BUT2*%
X19900000Y38100000D02*
X19900000Y59900000D01*
X21992523Y36007477D02*
X19900000Y38100000D01*
X19900000Y59900000D02*
X20650000Y60650000D01*
X20650000Y60650000D02*
X20650000Y61820000D01*
%TO.N,/BUT1*%
X7100000Y64400000D02*
X6280000Y65220000D01*
X12200000Y56400000D02*
X11300000Y56400000D01*
X7100000Y60600000D02*
X7100000Y64400000D01*
X6280000Y65220000D02*
X5250000Y65220000D01*
X11300000Y56400000D02*
X7100000Y60600000D01*
%TO.N,/BLE.TX*%
X12416847Y35583153D02*
X9300000Y38700000D01*
X14099500Y35583153D02*
X12416847Y35583153D01*
X9300000Y38700000D02*
X8200000Y38700000D01*
%TO.N,/BLE.RX*%
X10100000Y39700000D02*
X8199079Y39700000D01*
X13400000Y36400000D02*
X10100000Y39700000D01*
%TO.N,/BLE.PWRC*%
X13300000Y32570473D02*
X13300000Y33300000D01*
X8900000Y37700000D02*
X8200000Y37700000D01*
X13300000Y33300000D02*
X8900000Y37700000D01*
%TO.N,/BLE.RST*%
X12999215Y31870473D02*
X16471503Y31870473D01*
X16471503Y31870473D02*
X16472003Y31870973D01*
X8199079Y36670609D02*
X12999215Y31870473D01*
%TO.N,/BLE.STATUS*%
X9500000Y30874138D02*
X13074138Y30874138D01*
X13074138Y30874138D02*
X13300000Y31100000D01*
D24*
%TO.N,/USB.D-*%
X12800000Y21400000D02*
X12800270Y16835661D01*
X12275270Y15850861D02*
X12075270Y15650861D01*
X12800000Y21618200D02*
X12800000Y21400000D01*
X12075270Y15650861D02*
X12075270Y14657110D01*
X18725001Y23425001D02*
X19000000Y23700000D01*
X12275270Y16310661D02*
X12275270Y15850861D01*
X12800270Y16835661D02*
X12275270Y16310661D01*
X14606801Y23425001D02*
X18725001Y23425001D01*
X12800000Y21618200D02*
X14606801Y23425001D01*
%TO.N,/USB.D+*%
X13775270Y15850861D02*
X13975270Y15650861D01*
X13775270Y16310661D02*
X13775270Y15850861D01*
X13250270Y21432070D02*
X13250270Y16835661D01*
X13975270Y15650861D02*
X13975270Y14657110D01*
X18725001Y22974999D02*
X19000000Y22700000D01*
X13250270Y16835661D02*
X13775270Y16310661D01*
X13250270Y21432070D02*
X14793199Y22974999D01*
X14793199Y22974999D02*
X18725001Y22974999D01*
D25*
%TO.N,/SWDIO*%
X23542019Y42157981D02*
X23542019Y46627981D01*
X20800000Y29400000D02*
X24141519Y32741519D01*
X20800000Y27900000D02*
X20800000Y29400000D01*
X24141519Y32741519D02*
X24141519Y41558481D01*
X24141519Y41558481D02*
X23542019Y42157981D01*
X23542019Y46627981D02*
X21925000Y48245000D01*
%TO.N,/SWCLK*%
X24541519Y42200500D02*
X24541519Y30103301D01*
X24242019Y42500000D02*
X24541519Y42200500D01*
X24541519Y30103301D02*
X24241519Y29803301D01*
X24241519Y29803301D02*
X24241519Y28133481D01*
X24241519Y28133481D02*
X25000000Y27375000D01*
%TO.N,/VIBRO*%
X19100000Y52200000D02*
X19500000Y51800000D01*
X19500000Y37934315D02*
X20993056Y36441258D01*
X20993056Y36441258D02*
X20993056Y35999104D01*
X19500000Y51800000D02*
X19500000Y37934315D01*
%TO.N,/BatADC_EN*%
X17664364Y29375000D02*
X21000000Y26039364D01*
X21000000Y23300000D02*
X17600000Y19900000D01*
X16600000Y29375000D02*
X17664364Y29375000D01*
X17600000Y19900000D02*
X15512500Y19900000D01*
X21000000Y26039364D02*
X21000000Y23300000D01*
X15512500Y19900000D02*
X14812500Y19200000D01*
D24*
%TO.N,/USB.power*%
X10450000Y7495000D02*
X10450000Y9535000D01*
D23*
X11676742Y13494610D02*
X10450000Y12267868D01*
X13000000Y13494610D02*
X11676742Y13494610D01*
X10450000Y12267868D02*
X10450000Y9535000D01*
X13025270Y14657110D02*
X13025270Y13519880D01*
X13025270Y14657110D02*
X13025270Y16000000D01*
D24*
X15250000Y9235000D02*
X15550000Y9535000D01*
X10750000Y7495000D02*
X10750000Y9235000D01*
X10750000Y9235000D02*
X10450000Y9535000D01*
X15550000Y7495000D02*
X15550000Y9535000D01*
D23*
X15550000Y9535000D02*
X15550000Y12318408D01*
D24*
X15250000Y7495000D02*
X15250000Y9235000D01*
D23*
X15550000Y12318408D02*
X14373798Y13494610D01*
X14373798Y13494610D02*
X13000000Y13494610D01*
X13025270Y13519880D02*
X13000000Y13494610D01*
D25*
%TO.N,/NPX.D3V*%
X9500000Y28600000D02*
X17395000Y28600000D01*
X4700000Y23800000D02*
X9500000Y28600000D01*
X17395000Y28600000D02*
X18695000Y27300000D01*
%TO.N,/BUZZER*%
X20579977Y30220023D02*
X20579977Y30179977D01*
X13200000Y37600000D02*
X20579977Y30220023D01*
X13200000Y38000000D02*
X13200000Y37600000D01*
%TO.N,/UART.Cmd_TX*%
X24941519Y47768481D02*
X21925000Y50785000D01*
X24941519Y29513351D02*
X24941519Y47768481D01*
%TO.N,/UART.Cmd_RX*%
X25641019Y30375000D02*
X25641019Y49608981D01*
X25641019Y49608981D02*
X21925000Y53325000D01*
%TO.N,/NPX.D5V*%
X8500000Y16000000D02*
X7135000Y14635000D01*
X8500000Y18500000D02*
X8500000Y16000000D01*
X7600000Y19400000D02*
X8500000Y18500000D01*
X7135000Y14635000D02*
X6575000Y14635000D01*
%TO.N,Net-(XS1-CC1)*%
X14250000Y9000000D02*
X14250000Y7495000D01*
%TO.N,Net-(XS1-CC2)*%
X11250000Y8500000D02*
X11250000Y7495000D01*
X11750000Y9000000D02*
X11250000Y8500000D01*
D24*
%TO.N,/D+*%
X12693200Y3225000D02*
X12025000Y3893200D01*
X13225001Y9825001D02*
X13500000Y10100000D01*
X14273197Y5045056D02*
X14768413Y4549840D01*
X14768413Y3986613D02*
X14006800Y3225000D01*
X13975270Y10575270D02*
X13975270Y12382110D01*
X13610153Y5045056D02*
X14273197Y5045056D01*
X12250000Y7495000D02*
X12250000Y6750000D01*
X13225001Y7519999D02*
X13225001Y9825001D01*
X14006800Y3225000D02*
X12693200Y3225000D01*
X12700000Y5955209D02*
X13610153Y5045056D01*
X12250000Y6750000D02*
X12700000Y6300000D01*
X12025000Y3893200D02*
X12025001Y4925001D01*
X12700000Y6300000D02*
X12700000Y5955209D01*
X14768413Y4549840D02*
X14768413Y3986613D01*
X12025001Y4925001D02*
X12300000Y5200000D01*
X13250000Y7495000D02*
X13225001Y7519999D01*
X13500000Y10100000D02*
X13975270Y10575270D01*
%TO.N,/D-*%
X13300000Y6300000D02*
X13300000Y5991609D01*
X11575000Y3706800D02*
X11574999Y4925001D01*
X12506800Y2775000D02*
X11575000Y3706800D01*
X12500000Y10100000D02*
X12075270Y10524730D01*
X13796553Y5495056D02*
X14459597Y5495056D01*
X13750000Y6750000D02*
X13300000Y6300000D01*
X11574999Y4925001D02*
X11300000Y5200000D01*
X13300000Y5991609D02*
X13796553Y5495056D01*
X12774999Y9825001D02*
X12500000Y10100000D01*
X14193200Y2775000D02*
X12506800Y2775000D01*
X13750000Y7495000D02*
X13750000Y6750000D01*
X12774999Y7519999D02*
X12774999Y9825001D01*
X14459597Y5495056D02*
X15218413Y4736240D01*
X12750000Y7495000D02*
X12774999Y7519999D01*
X15218413Y3800213D02*
X14193200Y2775000D01*
X15218413Y4736240D02*
X15218413Y3800213D01*
X12075270Y10524730D02*
X12075270Y12382110D01*
%TD*%
%TA.AperFunction,Conductor*%
%TO.N,GND*%
G36*
X13150770Y12562148D02*
G01*
X13205308Y12507610D01*
X13225270Y12433110D01*
X13225270Y11522057D01*
X13276523Y11529524D01*
X13381457Y11580823D01*
X13389189Y11586343D01*
X13461421Y11613387D01*
X13537497Y11600693D01*
X13597033Y11551661D01*
X13624077Y11479429D01*
X13624770Y11465080D01*
X13624770Y10852778D01*
X13604808Y10778278D01*
X13550270Y10723740D01*
X13495218Y10705053D01*
X13343242Y10685046D01*
X13197159Y10624537D01*
X13090705Y10542852D01*
X13019447Y10513337D01*
X12942979Y10523404D01*
X12909295Y10542852D01*
X12802840Y10624537D01*
X12656758Y10685046D01*
X12555321Y10698400D01*
X12484064Y10727916D01*
X12437112Y10789106D01*
X12425770Y10846125D01*
X12425770Y11465080D01*
X12445732Y11539580D01*
X12500270Y11594118D01*
X12574770Y11614080D01*
X12649270Y11594118D01*
X12661351Y11586343D01*
X12669082Y11580823D01*
X12774019Y11529523D01*
X12774024Y11529522D01*
X12825269Y11522055D01*
X12825269Y11522056D01*
X12825270Y12433110D01*
X12845232Y12507610D01*
X12899770Y12562148D01*
X12974270Y12582110D01*
X13076270Y12582110D01*
X13150770Y12562148D01*
G37*
%TD.AperFunction*%
%TA.AperFunction,Conductor*%
G36*
X25888311Y67679538D02*
G01*
X25919170Y67655860D01*
X27655860Y65919169D01*
X27694423Y65852376D01*
X27699500Y65813812D01*
X27699500Y2186189D01*
X27679538Y2111689D01*
X27655859Y2080830D01*
X25919170Y344141D01*
X25852375Y305577D01*
X25813811Y300500D01*
X186189Y300500D01*
X111689Y320462D01*
X80830Y344141D01*
X-1655859Y2080830D01*
X-1694423Y2147625D01*
X-1699500Y2186189D01*
X-1699500Y2407628D01*
X7979500Y2407628D01*
X7991020Y2312753D01*
X7994860Y2281126D01*
X8055181Y2122071D01*
X8083648Y2080830D01*
X8151817Y1982071D01*
X8151819Y1982070D01*
X8151820Y1982068D01*
X8279146Y1869268D01*
X8279148Y1869266D01*
X8429775Y1790210D01*
X8594944Y1749500D01*
X8765056Y1749500D01*
X8930225Y1790210D01*
X9080852Y1869266D01*
X9208183Y1982071D01*
X9304818Y2122070D01*
X9365140Y2281128D01*
X9380500Y2407628D01*
X16619500Y2407628D01*
X16631020Y2312753D01*
X16634860Y2281126D01*
X16695181Y2122071D01*
X16723648Y2080830D01*
X16791817Y1982071D01*
X16791819Y1982070D01*
X16791820Y1982068D01*
X16919146Y1869268D01*
X16919148Y1869266D01*
X17069775Y1790210D01*
X17234944Y1749500D01*
X17405056Y1749500D01*
X17570225Y1790210D01*
X17720852Y1869266D01*
X17848183Y1982071D01*
X17944818Y2122070D01*
X18005140Y2281128D01*
X18020500Y2407628D01*
X18020500Y3092372D01*
X18005140Y3218872D01*
X17944818Y3377930D01*
X17848183Y3517929D01*
X17848180Y3517932D01*
X17848179Y3517933D01*
X17720853Y3630733D01*
X17720854Y3630733D01*
X17570224Y3709791D01*
X17405056Y3750500D01*
X17234944Y3750500D01*
X17069775Y3709791D01*
X16919145Y3630733D01*
X16791820Y3517933D01*
X16791817Y3517929D01*
X16695181Y3377930D01*
X16634860Y3218875D01*
X16634860Y3218872D01*
X16619500Y3092372D01*
X16619500Y2407628D01*
X9380500Y2407628D01*
X9380500Y3092372D01*
X9365140Y3218872D01*
X9304818Y3377930D01*
X9208183Y3517929D01*
X9208180Y3517932D01*
X9208179Y3517933D01*
X9080853Y3630733D01*
X9080854Y3630733D01*
X8930224Y3709791D01*
X8765056Y3750500D01*
X8594944Y3750500D01*
X8429775Y3709791D01*
X8279145Y3630733D01*
X8151820Y3517933D01*
X8151817Y3517929D01*
X8055181Y3377930D01*
X7994860Y3218875D01*
X7994860Y3218872D01*
X7979500Y3092372D01*
X7979500Y2407628D01*
X-1699500Y2407628D01*
X-1699500Y3907365D01*
X445718Y3907365D01*
X460880Y3782493D01*
X475893Y3658847D01*
X545538Y3418403D01*
X545539Y3418399D01*
X652859Y3192227D01*
X652861Y3192224D01*
X795064Y2986208D01*
X795065Y2986207D01*
X795068Y2986203D01*
X968484Y2805659D01*
X1168615Y2655270D01*
X1390279Y2538931D01*
X1627734Y2459657D01*
X1627738Y2459657D01*
X1627739Y2459656D01*
X1874824Y2419501D01*
X1874828Y2419500D01*
X1874831Y2419500D01*
X2062477Y2419500D01*
X2062481Y2419500D01*
X2249527Y2434600D01*
X2492591Y2494510D01*
X2722897Y2592634D01*
X2934481Y2726432D01*
X2934482Y2726434D01*
X2934485Y2726435D01*
X3023912Y2805661D01*
X3121862Y2892437D01*
X3280188Y3086350D01*
X3405357Y3303150D01*
X3494128Y3537220D01*
X3544202Y3782500D01*
X3554282Y4032635D01*
X3524107Y4281149D01*
X3506209Y4342940D01*
X3454461Y4521598D01*
X3454460Y4521602D01*
X3347140Y4747774D01*
X3347138Y4747777D01*
X3204935Y4953793D01*
X3204934Y4953794D01*
X3204932Y4953797D01*
X3031516Y5134341D01*
X2831385Y5284730D01*
X2609721Y5401069D01*
X2372266Y5480343D01*
X2372262Y5480344D01*
X2372261Y5480344D01*
X2372260Y5480345D01*
X2125175Y5520500D01*
X2125169Y5520500D01*
X1937519Y5520500D01*
X1888898Y5516575D01*
X1750474Y5505401D01*
X1507406Y5445490D01*
X1277103Y5347366D01*
X1277101Y5347365D01*
X1065514Y5213566D01*
X878140Y5047566D01*
X719810Y4853649D01*
X594642Y4636850D01*
X594641Y4636848D01*
X505875Y4402791D01*
X505871Y4402780D01*
X455799Y4157508D01*
X455798Y4157504D01*
X455798Y4157500D01*
X445718Y3907365D01*
X-1699500Y3907365D01*
X-1699500Y12599998D01*
X-905682Y12599998D01*
X-885046Y12443243D01*
X-824537Y12297160D01*
X-754297Y12205622D01*
X-728282Y12171718D01*
X-602841Y12075464D01*
X-456762Y12014956D01*
X-456759Y12014956D01*
X-456757Y12014955D01*
X-456760Y12014955D01*
X-300003Y11994318D01*
X-300000Y11994318D01*
X-299997Y11994318D01*
X-143243Y12014955D01*
X-143242Y12014956D01*
X-143238Y12014956D01*
X-6519Y12071588D01*
X69948Y12081654D01*
X141205Y12052139D01*
X188158Y11990949D01*
X199500Y11933929D01*
X199500Y10784487D01*
X199031Y10776139D01*
X194730Y10737969D01*
X194730Y10737961D01*
X205788Y10679521D01*
X214653Y10620709D01*
X217169Y10612552D01*
X219977Y10604526D01*
X247777Y10551928D01*
X273572Y10498362D01*
X278384Y10491304D01*
X283435Y10484461D01*
X325494Y10442401D01*
X365945Y10398806D01*
X374675Y10391844D01*
X373907Y10390882D01*
X387257Y10380639D01*
X1168317Y9599579D01*
X1206881Y9532784D01*
X1210683Y9513670D01*
X1219956Y9443238D01*
X1280463Y9297160D01*
X1343316Y9215249D01*
X1376718Y9171718D01*
X1502159Y9075464D01*
X1648238Y9014956D01*
X1648241Y9014956D01*
X1648243Y9014955D01*
X1648240Y9014955D01*
X1804997Y8994318D01*
X1805000Y8994318D01*
X1805003Y8994318D01*
X1961757Y9014955D01*
X1961758Y9014956D01*
X1961762Y9014956D01*
X2107841Y9075464D01*
X2233282Y9171718D01*
X2329536Y9297159D01*
X2390044Y9443238D01*
X2394729Y9478819D01*
X2410682Y9599998D01*
X2410682Y9600003D01*
X2390045Y9756758D01*
X2390044Y9756760D01*
X2390044Y9756762D01*
X2329536Y9902841D01*
X2233282Y10028282D01*
X2158906Y10085353D01*
X2107840Y10124537D01*
X2013363Y10163670D01*
X1961762Y10185044D01*
X1891328Y10194318D01*
X1820072Y10223833D01*
X1805420Y10236683D01*
X1144141Y10897962D01*
X1105577Y10964757D01*
X1100500Y11003321D01*
X1100500Y11895000D01*
X5539617Y11895000D01*
X5540192Y11889161D01*
X5600232Y11691239D01*
X5600234Y11691234D01*
X5697725Y11508839D01*
X5697730Y11508832D01*
X5828945Y11348946D01*
X5988831Y11217731D01*
X5988838Y11217726D01*
X6171233Y11120235D01*
X6171240Y11120232D01*
X6369164Y11060192D01*
X6375000Y11059619D01*
X6375000Y11446709D01*
X6394962Y11521209D01*
X6449500Y11575747D01*
X6524000Y11595709D01*
X6534628Y11595330D01*
X6539231Y11595001D01*
X6539237Y11595000D01*
X6539243Y11595000D01*
X6610757Y11595000D01*
X6610763Y11595000D01*
X6610768Y11595001D01*
X6615372Y11595330D01*
X6691107Y11580732D01*
X6749395Y11530223D01*
X6774621Y11457337D01*
X6775000Y11446709D01*
X6775000Y11059619D01*
X6780835Y11060192D01*
X6978759Y11120232D01*
X6978766Y11120235D01*
X7161161Y11217726D01*
X7161168Y11217731D01*
X7321054Y11348946D01*
X7452269Y11508832D01*
X7452274Y11508839D01*
X7549765Y11691234D01*
X7549767Y11691239D01*
X7609807Y11889161D01*
X7610383Y11895000D01*
X7224000Y11895000D01*
X7149500Y11914962D01*
X7094962Y11969500D01*
X7075000Y12044000D01*
X7075000Y12146000D01*
X7094962Y12220500D01*
X7149500Y12275038D01*
X7224000Y12295000D01*
X7610382Y12295000D01*
X7609807Y12300840D01*
X7549767Y12498762D01*
X7549765Y12498767D01*
X7452274Y12681162D01*
X7452269Y12681169D01*
X7321054Y12841055D01*
X7161168Y12972270D01*
X7161161Y12972275D01*
X6978766Y13069766D01*
X6978761Y13069768D01*
X6780838Y13129808D01*
X6780841Y13129808D01*
X6775000Y13130383D01*
X6775000Y12743292D01*
X6755038Y12668792D01*
X6700500Y12614254D01*
X6626000Y12594292D01*
X6615387Y12594670D01*
X6610766Y12595000D01*
X6610763Y12595000D01*
X6539237Y12595000D01*
X6539234Y12595000D01*
X6534613Y12594670D01*
X6458880Y12609276D01*
X6400596Y12659790D01*
X6375378Y12732679D01*
X6375000Y12743292D01*
X6375000Y13130383D01*
X6369160Y13129808D01*
X6171238Y13069768D01*
X6171233Y13069766D01*
X5988838Y12972275D01*
X5988831Y12972270D01*
X5828945Y12841055D01*
X5697730Y12681169D01*
X5697725Y12681162D01*
X5600234Y12498767D01*
X5600232Y12498762D01*
X5540192Y12300840D01*
X5539617Y12295000D01*
X5926000Y12295000D01*
X6000500Y12275038D01*
X6055038Y12220500D01*
X6075000Y12146000D01*
X6075000Y12044000D01*
X6055038Y11969500D01*
X6000500Y11914962D01*
X5926000Y11895000D01*
X5539617Y11895000D01*
X1100500Y11895000D01*
X1100500Y14635000D01*
X5519417Y14635000D01*
X5539700Y14429063D01*
X5599768Y14231045D01*
X5697310Y14048558D01*
X5697313Y14048554D01*
X5697315Y14048550D01*
X5828590Y13888590D01*
X5988550Y13757315D01*
X6171046Y13659768D01*
X6369063Y13599701D01*
X6369066Y13599700D01*
X6575000Y13579417D01*
X6780934Y13599700D01*
X6978954Y13659768D01*
X7161450Y13757315D01*
X7321410Y13888590D01*
X7452685Y14048550D01*
X7550232Y14231046D01*
X7610300Y14429066D01*
X7630583Y14635000D01*
X7630582Y14635003D01*
X7630583Y14635006D01*
X7630583Y14642321D01*
X7633348Y14642321D01*
X7643686Y14705167D01*
X7674079Y14749110D01*
X8667456Y15742486D01*
X8675241Y15749259D01*
X8684216Y15756037D01*
X8684228Y15756042D01*
X8716245Y15791164D01*
X8718569Y15793599D01*
X8732175Y15807203D01*
X8733201Y15808702D01*
X8739597Y15816780D01*
X8759916Y15839067D01*
X8761368Y15842817D01*
X8777388Y15873208D01*
X8779657Y15876520D01*
X8786557Y15905862D01*
X8789612Y15915724D01*
X8800500Y15943827D01*
X8800500Y15947853D01*
X8804458Y15981968D01*
X8805379Y15985882D01*
X8801214Y16015741D01*
X8800499Y16026021D01*
X8800499Y18436294D01*
X8801215Y18446605D01*
X8802771Y18457760D01*
X8802773Y18457765D01*
X8800578Y18505237D01*
X8800500Y18508656D01*
X8800500Y18527841D01*
X8800500Y18527844D01*
X8800166Y18529626D01*
X8798976Y18539878D01*
X8797585Y18569992D01*
X8795957Y18573679D01*
X8785799Y18606485D01*
X8785061Y18610432D01*
X8785061Y18610433D01*
X8769193Y18636060D01*
X8764381Y18645191D01*
X8752206Y18672765D01*
X8749359Y18675612D01*
X8728037Y18702532D01*
X8725919Y18705952D01*
X8725917Y18705954D01*
X8701869Y18724114D01*
X8694076Y18730895D01*
X8236615Y19188356D01*
X8198051Y19255151D01*
X8194249Y19313160D01*
X8205682Y19400000D01*
X8185044Y19556762D01*
X8124536Y19702841D01*
X8028282Y19828282D01*
X7902841Y19924536D01*
X7902840Y19924537D01*
X7822944Y19957631D01*
X7756762Y19985044D01*
X7756760Y19985045D01*
X7756756Y19985046D01*
X7756759Y19985046D01*
X7600003Y20005682D01*
X7599997Y20005682D01*
X7443242Y19985046D01*
X7297159Y19924537D01*
X7171718Y19828283D01*
X7171717Y19828282D01*
X7075463Y19702841D01*
X7014954Y19556758D01*
X6994318Y19400003D01*
X6994318Y19399998D01*
X7014954Y19243243D01*
X7075463Y19097160D01*
X7151451Y18998131D01*
X7171718Y18971718D01*
X7297159Y18875464D01*
X7443238Y18814956D01*
X7443241Y18814956D01*
X7443243Y18814955D01*
X7443240Y18814955D01*
X7599997Y18794318D01*
X7600000Y18794318D01*
X7686838Y18805751D01*
X7763303Y18795685D01*
X7811644Y18763385D01*
X8155859Y18419170D01*
X8194423Y18352375D01*
X8199500Y18313811D01*
X8199500Y16186191D01*
X8179538Y16111691D01*
X8155859Y16080832D01*
X7491065Y15416038D01*
X7424270Y15377474D01*
X7347142Y15377474D01*
X7291182Y15406218D01*
X7169987Y15505679D01*
X7161450Y15512685D01*
X7161446Y15512687D01*
X7161442Y15512690D01*
X6978955Y15610232D01*
X6780936Y15670300D01*
X6780937Y15670300D01*
X6626483Y15685513D01*
X6575000Y15690583D01*
X6574999Y15690583D01*
X6369062Y15670300D01*
X6171044Y15610232D01*
X5988557Y15512690D01*
X5988547Y15512683D01*
X5828590Y15381411D01*
X5828589Y15381410D01*
X5697317Y15221453D01*
X5697310Y15221443D01*
X5599768Y15038956D01*
X5539700Y14840938D01*
X5519417Y14635000D01*
X1100500Y14635000D01*
X1100500Y16305252D01*
X5524500Y16305252D01*
X5536132Y16246770D01*
X5536133Y16246769D01*
X5580448Y16180448D01*
X5646769Y16136133D01*
X5705252Y16124500D01*
X7444748Y16124500D01*
X7503231Y16136133D01*
X7569552Y16180448D01*
X7613867Y16246769D01*
X7625500Y16305252D01*
X7625500Y18044748D01*
X7613867Y18103231D01*
X7569552Y18169552D01*
X7503231Y18213867D01*
X7503230Y18213868D01*
X7444748Y18225500D01*
X5705252Y18225500D01*
X5646769Y18213868D01*
X5580448Y18169552D01*
X5536132Y18103231D01*
X5524500Y18044749D01*
X5524500Y16305252D01*
X1100500Y16305252D01*
X1100500Y20703761D01*
X1120462Y20778261D01*
X1144141Y20809120D01*
X1805518Y21470497D01*
X2597716Y22262696D01*
X2603931Y22268250D01*
X2633970Y22292203D01*
X2667471Y22341341D01*
X2702793Y22389199D01*
X2702795Y22389208D01*
X2706781Y22396746D01*
X2710465Y22404400D01*
X2710472Y22404409D01*
X2728004Y22461251D01*
X2747646Y22517382D01*
X2747646Y22517385D01*
X2749226Y22525736D01*
X2750500Y22534182D01*
X2750500Y22593655D01*
X2751654Y22624499D01*
X2752724Y22653092D01*
X2752722Y22653097D01*
X2751474Y22664185D01*
X2752682Y22664322D01*
X2750500Y22681006D01*
X2750500Y23799998D01*
X4094318Y23799998D01*
X4114954Y23643243D01*
X4175463Y23497160D01*
X4252196Y23397160D01*
X4271718Y23371718D01*
X4397159Y23275464D01*
X4543238Y23214956D01*
X4543241Y23214956D01*
X4543243Y23214955D01*
X4543240Y23214955D01*
X4699997Y23194318D01*
X4700000Y23194318D01*
X4700003Y23194318D01*
X4856757Y23214955D01*
X4856758Y23214956D01*
X4856762Y23214956D01*
X5002841Y23275464D01*
X5128282Y23371718D01*
X5224536Y23497159D01*
X5285044Y23643238D01*
X5292518Y23700003D01*
X5305682Y23799998D01*
X5305682Y23800003D01*
X5294250Y23886839D01*
X5304317Y23963307D01*
X5336616Y24011646D01*
X9580830Y28255859D01*
X9647625Y28294423D01*
X9686189Y28299500D01*
X17208811Y28299500D01*
X17283311Y28279538D01*
X17314170Y28255859D01*
X18058383Y27511645D01*
X18096947Y27444850D01*
X18100750Y27386839D01*
X18093724Y27333468D01*
X18089854Y27304067D01*
X18089318Y27299998D01*
X18109954Y27143243D01*
X18170463Y26997160D01*
X18209169Y26946718D01*
X18266718Y26871718D01*
X18392159Y26775464D01*
X18538238Y26714956D01*
X18538241Y26714956D01*
X18538243Y26714955D01*
X18538240Y26714955D01*
X18694997Y26694318D01*
X18695000Y26694318D01*
X18695003Y26694318D01*
X18851757Y26714955D01*
X18851758Y26714956D01*
X18851762Y26714956D01*
X18997841Y26775464D01*
X19123282Y26871718D01*
X19219536Y26997159D01*
X19250684Y27072358D01*
X19297633Y27133544D01*
X19368890Y27163060D01*
X19445358Y27152994D01*
X19493699Y27120694D01*
X20655859Y25958534D01*
X20694423Y25891739D01*
X20699500Y25853175D01*
X20699500Y23486190D01*
X20679538Y23411690D01*
X20655859Y23380831D01*
X19860041Y22585012D01*
X19793246Y22546448D01*
X19716118Y22546448D01*
X19649323Y22585012D01*
X19610759Y22651807D01*
X19605682Y22690371D01*
X19605682Y22700003D01*
X19585045Y22856758D01*
X19585044Y22856760D01*
X19585044Y22856762D01*
X19524536Y23002841D01*
X19442850Y23109296D01*
X19413336Y23180552D01*
X19423403Y23257020D01*
X19442851Y23290705D01*
X19457922Y23310346D01*
X19524536Y23397159D01*
X19585044Y23543238D01*
X19605682Y23700000D01*
X19604969Y23705419D01*
X19585045Y23856758D01*
X19585044Y23856760D01*
X19585044Y23856762D01*
X19524536Y24002841D01*
X19428282Y24128282D01*
X19302841Y24224536D01*
X19302840Y24224537D01*
X19222944Y24257631D01*
X19156762Y24285044D01*
X19156760Y24285045D01*
X19156756Y24285046D01*
X19156759Y24285046D01*
X19000003Y24305682D01*
X18999997Y24305682D01*
X18843242Y24285046D01*
X18697159Y24224537D01*
X18571718Y24128283D01*
X18571717Y24128282D01*
X18475463Y24002841D01*
X18419396Y23867481D01*
X18372443Y23806291D01*
X18301186Y23776776D01*
X18281738Y23775501D01*
X14658602Y23775501D01*
X14628025Y23778672D01*
X14627047Y23778877D01*
X14621485Y23780044D01*
X14589641Y23776074D01*
X14580417Y23775501D01*
X14577757Y23775501D01*
X14556247Y23771912D01*
X14505402Y23765574D01*
X14498373Y23763482D01*
X14491424Y23761096D01*
X14446356Y23736706D01*
X14400310Y23714196D01*
X14394358Y23709948D01*
X14388545Y23705422D01*
X14353843Y23667726D01*
X12588786Y21902670D01*
X12564934Y21883299D01*
X12559335Y21879641D01*
X12559329Y21879635D01*
X12539618Y21854311D01*
X12533510Y21847394D01*
X12531632Y21845516D01*
X12531620Y21845502D01*
X12518955Y21827762D01*
X12487480Y21787323D01*
X12483986Y21780868D01*
X12483984Y21780863D01*
X12483977Y21780851D01*
X12480761Y21774272D01*
X12466138Y21725155D01*
X12449498Y21676684D01*
X12448291Y21669452D01*
X12447383Y21662158D01*
X12449500Y21610969D01*
X12449500Y21470497D01*
X12449496Y21470447D01*
X12449500Y21407721D01*
X12449500Y21367788D01*
X12449502Y21367727D01*
X12449757Y17042559D01*
X12429799Y16968058D01*
X12406116Y16937191D01*
X12064056Y16595131D01*
X12040204Y16575760D01*
X12034605Y16572102D01*
X12034599Y16572096D01*
X12014888Y16546772D01*
X12008780Y16539855D01*
X12006902Y16537977D01*
X12006890Y16537963D01*
X11994225Y16520223D01*
X11962750Y16479784D01*
X11959256Y16473329D01*
X11959254Y16473324D01*
X11959247Y16473312D01*
X11956031Y16466733D01*
X11941408Y16417616D01*
X11924768Y16369145D01*
X11923561Y16361913D01*
X11922653Y16354619D01*
X11924770Y16303430D01*
X11924769Y16057761D01*
X11904806Y15983261D01*
X11881128Y15952403D01*
X11864056Y15935331D01*
X11840204Y15915960D01*
X11834605Y15912302D01*
X11834599Y15912296D01*
X11814888Y15886972D01*
X11808780Y15880055D01*
X11806902Y15878177D01*
X11806890Y15878163D01*
X11794225Y15860423D01*
X11762750Y15819984D01*
X11759256Y15813529D01*
X11759254Y15813524D01*
X11759247Y15813512D01*
X11756031Y15806933D01*
X11741408Y15757816D01*
X11724768Y15709345D01*
X11723561Y15702113D01*
X11722653Y15694819D01*
X11724770Y15643630D01*
X11724770Y15526509D01*
X11704808Y15452009D01*
X11681129Y15421150D01*
X11636071Y15376093D01*
X11636070Y15376092D01*
X11584696Y15271005D01*
X11584696Y15271004D01*
X11574770Y15202879D01*
X11574770Y14111342D01*
X11581398Y14065856D01*
X11572386Y13989256D01*
X11526281Y13927425D01*
X11503578Y13912640D01*
X11473678Y13896837D01*
X11420103Y13871037D01*
X11413060Y13866236D01*
X11406205Y13861176D01*
X11364155Y13819128D01*
X11320548Y13778665D01*
X11313585Y13769934D01*
X11312649Y13770681D01*
X11302383Y13757356D01*
X10152298Y12607271D01*
X10146065Y12601701D01*
X10116030Y12577749D01*
X10082518Y12528596D01*
X10047204Y12480748D01*
X10043221Y12473211D01*
X10039526Y12465539D01*
X10021992Y12408691D01*
X10002354Y12352569D01*
X10000768Y12344188D01*
X9999500Y12335769D01*
X9999500Y12276296D01*
X9997276Y12216853D01*
X9998526Y12205759D01*
X9997302Y12205622D01*
X9999500Y12188941D01*
X9999499Y10281016D01*
X9979537Y10206516D01*
X9938979Y10161131D01*
X9836788Y10085711D01*
X9836787Y10085710D01*
X9758383Y9979476D01*
X9727873Y9892283D01*
X9684425Y9828558D01*
X9614935Y9795093D01*
X9538022Y9800858D01*
X9474297Y9844306D01*
X9446596Y9892285D01*
X9416169Y9979241D01*
X9337855Y10085353D01*
X9337852Y10085356D01*
X9231740Y10163670D01*
X9107251Y10207230D01*
X9077714Y10210000D01*
X8925000Y10210000D01*
X8924999Y9866109D01*
X8905037Y9791609D01*
X8850499Y9737071D01*
X8834694Y9729157D01*
X8732695Y9685442D01*
X8656356Y9674442D01*
X8584744Y9703086D01*
X8537048Y9763699D01*
X8525000Y9822394D01*
X8525000Y10210000D01*
X8372285Y10210000D01*
X8342748Y10207230D01*
X8218259Y10163670D01*
X8112147Y10085356D01*
X8112144Y10085353D01*
X8033830Y9979241D01*
X7990270Y9854752D01*
X7987500Y9825215D01*
X7987500Y9735000D01*
X8176503Y9735000D01*
X8251003Y9715038D01*
X8305541Y9660500D01*
X8325503Y9586000D01*
X8309522Y9518865D01*
X8294865Y9489826D01*
X8293367Y9441035D01*
X8252770Y9375456D01*
X8184823Y9338961D01*
X8150696Y9335000D01*
X7987500Y9335000D01*
X7987500Y9244786D01*
X7990270Y9215249D01*
X8033830Y9090760D01*
X8112144Y8984648D01*
X8112147Y8984645D01*
X8218259Y8906331D01*
X8342748Y8862771D01*
X8345747Y8862489D01*
X8348199Y8861580D01*
X8351606Y8860835D01*
X8351500Y8860355D01*
X8418058Y8835661D01*
X8467267Y8776270D01*
X8476878Y8748267D01*
X8575851Y8327632D01*
X8573483Y8250540D01*
X8532886Y8184961D01*
X8466472Y8148835D01*
X8429774Y8139790D01*
X8279145Y8060733D01*
X8151820Y7947933D01*
X8151817Y7947929D01*
X8055181Y7807930D01*
X7994860Y7648875D01*
X7994860Y7648872D01*
X7979500Y7522372D01*
X7979500Y6337628D01*
X7982629Y6311862D01*
X7994860Y6211126D01*
X8055181Y6052071D01*
X8071712Y6028122D01*
X8151817Y5912071D01*
X8151819Y5912070D01*
X8151820Y5912068D01*
X8224508Y5847673D01*
X8269771Y5807573D01*
X8279146Y5799268D01*
X8279148Y5799266D01*
X8429775Y5720210D01*
X8594944Y5679500D01*
X8765056Y5679500D01*
X8930225Y5720210D01*
X9080852Y5799266D01*
X9208183Y5912071D01*
X9304818Y6052070D01*
X9313023Y6073708D01*
X9358105Y6136288D01*
X9428437Y6167944D01*
X9505174Y6160193D01*
X9567756Y6115111D01*
X9578146Y6100713D01*
X9624213Y6028123D01*
X9739419Y5919937D01*
X9767192Y5904669D01*
X9877908Y5843803D01*
X10030981Y5804500D01*
X10030983Y5804500D01*
X10149351Y5804500D01*
X10149351Y5804501D01*
X10266792Y5819336D01*
X10413732Y5877514D01*
X10541587Y5970406D01*
X10642324Y6092177D01*
X10709614Y6235174D01*
X10739227Y6390412D01*
X10729304Y6548138D01*
X10729303Y6548140D01*
X10728715Y6557494D01*
X10731470Y6557668D01*
X10736016Y6619511D01*
X10779374Y6683299D01*
X10848816Y6716863D01*
X10876725Y6719500D01*
X10919744Y6719500D01*
X10919748Y6719500D01*
X10970936Y6729682D01*
X11029064Y6729682D01*
X11080252Y6719500D01*
X11080256Y6719500D01*
X11419744Y6719500D01*
X11419748Y6719500D01*
X11470936Y6729682D01*
X11529064Y6729682D01*
X11580252Y6719500D01*
X11779188Y6719500D01*
X11853688Y6699538D01*
X11908226Y6645000D01*
X11910230Y6641416D01*
X11938295Y6589556D01*
X11960801Y6543518D01*
X11965074Y6537533D01*
X11969582Y6531741D01*
X12007275Y6497043D01*
X12305858Y6198460D01*
X12344422Y6131665D01*
X12349499Y6093101D01*
X12349499Y6007016D01*
X12346329Y5976446D01*
X12344957Y5969903D01*
X12344956Y5969896D01*
X12346066Y5960998D01*
X12335472Y5884601D01*
X12288099Y5823736D01*
X12217659Y5794843D01*
X12143242Y5785046D01*
X11997159Y5724537D01*
X11890705Y5642852D01*
X11819447Y5613337D01*
X11742979Y5623404D01*
X11709295Y5642852D01*
X11602840Y5724537D01*
X11508938Y5763432D01*
X11456762Y5785044D01*
X11456760Y5785045D01*
X11456756Y5785046D01*
X11456759Y5785046D01*
X11300003Y5805682D01*
X11299997Y5805682D01*
X11143242Y5785046D01*
X10997159Y5724537D01*
X10871718Y5628283D01*
X10871717Y5628282D01*
X10775463Y5502841D01*
X10714954Y5356758D01*
X10694318Y5200003D01*
X10694318Y5199998D01*
X10714954Y5043243D01*
X10775463Y4897160D01*
X10871717Y4771719D01*
X10871718Y4771718D01*
X10997160Y4675463D01*
X11056425Y4650915D01*
X11132519Y4619396D01*
X11193708Y4572445D01*
X11223224Y4501188D01*
X11224499Y4481739D01*
X11224499Y3758602D01*
X11221329Y3728030D01*
X11219957Y3721486D01*
X11219956Y3721483D01*
X11223926Y3689633D01*
X11224499Y3680429D01*
X11224499Y3677767D01*
X11224500Y3677760D01*
X11228087Y3656260D01*
X11234427Y3605407D01*
X11236521Y3598371D01*
X11238908Y3591419D01*
X11263295Y3546356D01*
X11285801Y3500318D01*
X11290074Y3494333D01*
X11294582Y3488541D01*
X11332275Y3453843D01*
X12222327Y2563791D01*
X12241704Y2539930D01*
X12245358Y2534337D01*
X12245361Y2534334D01*
X12245363Y2534331D01*
X12270683Y2514624D01*
X12277602Y2508515D01*
X12279491Y2506626D01*
X12296359Y2494584D01*
X12297234Y2493959D01*
X12337674Y2462483D01*
X12337676Y2462483D01*
X12344111Y2459000D01*
X12344114Y2458998D01*
X12344119Y2458996D01*
X12350731Y2455763D01*
X12350734Y2455761D01*
X12399833Y2441144D01*
X12448312Y2424500D01*
X12448315Y2424500D01*
X12455526Y2423297D01*
X12455548Y2423294D01*
X12455590Y2423287D01*
X12462843Y2422384D01*
X12462846Y2422383D01*
X12514031Y2424500D01*
X14141396Y2424500D01*
X14171971Y2421329D01*
X14173118Y2421089D01*
X14178515Y2419957D01*
X14199590Y2422585D01*
X14210367Y2423927D01*
X14219591Y2424500D01*
X14222239Y2424500D01*
X14222240Y2424500D01*
X14240666Y2427575D01*
X14243741Y2428088D01*
X14249377Y2428791D01*
X14294593Y2434427D01*
X14294598Y2434430D01*
X14301612Y2436518D01*
X14308570Y2438907D01*
X14308581Y2438908D01*
X14353644Y2463296D01*
X14399684Y2485802D01*
X14399689Y2485808D01*
X14405659Y2490070D01*
X14411456Y2494581D01*
X14411458Y2494582D01*
X14446157Y2532276D01*
X15429626Y3515746D01*
X15453492Y3535124D01*
X15459080Y3538775D01*
X15459079Y3538775D01*
X15459082Y3538776D01*
X15478796Y3564107D01*
X15484913Y3571032D01*
X15486788Y3572906D01*
X15499457Y3590652D01*
X15530930Y3631087D01*
X15530931Y3631092D01*
X15534428Y3637554D01*
X15534435Y3637567D01*
X15534444Y3637586D01*
X15537652Y3644146D01*
X15537651Y3644146D01*
X15537653Y3644147D01*
X15552274Y3693259D01*
X15568913Y3741725D01*
X15568913Y3741733D01*
X15570123Y3748990D01*
X15571028Y3756254D01*
X15571030Y3756259D01*
X15568913Y3807444D01*
X15568913Y3907365D01*
X22445718Y3907365D01*
X22460880Y3782493D01*
X22475893Y3658847D01*
X22545538Y3418403D01*
X22545539Y3418399D01*
X22652859Y3192227D01*
X22652861Y3192224D01*
X22795064Y2986208D01*
X22795065Y2986207D01*
X22795068Y2986203D01*
X22968484Y2805659D01*
X23168615Y2655270D01*
X23390279Y2538931D01*
X23627734Y2459657D01*
X23627738Y2459657D01*
X23627739Y2459656D01*
X23874824Y2419501D01*
X23874828Y2419500D01*
X23874831Y2419500D01*
X24062477Y2419500D01*
X24062481Y2419500D01*
X24249527Y2434600D01*
X24492591Y2494510D01*
X24722897Y2592634D01*
X24934481Y2726432D01*
X24934482Y2726434D01*
X24934485Y2726435D01*
X25023912Y2805661D01*
X25121862Y2892437D01*
X25280188Y3086350D01*
X25405357Y3303150D01*
X25494128Y3537220D01*
X25544202Y3782500D01*
X25554282Y4032635D01*
X25524107Y4281149D01*
X25506209Y4342940D01*
X25454461Y4521598D01*
X25454460Y4521602D01*
X25347140Y4747774D01*
X25347138Y4747777D01*
X25204935Y4953793D01*
X25204934Y4953794D01*
X25204932Y4953797D01*
X25031516Y5134341D01*
X24831385Y5284730D01*
X24609721Y5401069D01*
X24372266Y5480343D01*
X24372262Y5480344D01*
X24372261Y5480344D01*
X24372260Y5480345D01*
X24125175Y5520500D01*
X24125169Y5520500D01*
X23937519Y5520500D01*
X23888898Y5516575D01*
X23750474Y5505401D01*
X23507406Y5445490D01*
X23277103Y5347366D01*
X23277101Y5347365D01*
X23065514Y5213566D01*
X22878140Y5047566D01*
X22719810Y4853649D01*
X22594642Y4636850D01*
X22594641Y4636848D01*
X22505875Y4402791D01*
X22505871Y4402780D01*
X22455799Y4157508D01*
X22455798Y4157504D01*
X22455798Y4157500D01*
X22445718Y3907365D01*
X15568913Y3907365D01*
X15568913Y4684439D01*
X15572085Y4715018D01*
X15573456Y4721555D01*
X15570188Y4747774D01*
X15569486Y4753408D01*
X15568913Y4762632D01*
X15568913Y4765279D01*
X15568913Y4765280D01*
X15565325Y4786781D01*
X15558986Y4837633D01*
X15558985Y4837635D01*
X15556887Y4844682D01*
X15554504Y4851623D01*
X15530117Y4896685D01*
X15507613Y4942721D01*
X15503344Y4948698D01*
X15498829Y4954500D01*
X15461136Y4989199D01*
X14744068Y5706267D01*
X14724687Y5730134D01*
X14721037Y5735722D01*
X14721034Y5735724D01*
X14721034Y5735725D01*
X14707175Y5746512D01*
X14695706Y5755439D01*
X14688779Y5761556D01*
X14686903Y5763432D01*
X14680988Y5767655D01*
X14669158Y5776101D01*
X14628723Y5807573D01*
X14628722Y5807574D01*
X14628720Y5807575D01*
X14622253Y5811075D01*
X14615665Y5814295D01*
X14615663Y5814296D01*
X14598735Y5819336D01*
X14566551Y5828919D01*
X14518088Y5845556D01*
X14510849Y5846764D01*
X14510845Y5846764D01*
X14510837Y5846766D01*
X14503553Y5847673D01*
X14503551Y5847673D01*
X14452366Y5845556D01*
X14003453Y5845556D01*
X13928953Y5865518D01*
X13898094Y5889197D01*
X13746845Y6040446D01*
X13708281Y6107241D01*
X13708281Y6184369D01*
X13746844Y6251163D01*
X13961214Y6465534D01*
X13985071Y6484907D01*
X13990669Y6488563D01*
X14010383Y6513894D01*
X14016500Y6520819D01*
X14018375Y6522693D01*
X14031044Y6540439D01*
X14062517Y6580874D01*
X14062518Y6580879D01*
X14066015Y6587341D01*
X14066022Y6587354D01*
X14066031Y6587373D01*
X14069240Y6593935D01*
X14074920Y6613013D01*
X14115309Y6678721D01*
X14183141Y6715431D01*
X14217726Y6719500D01*
X14419744Y6719500D01*
X14419748Y6719500D01*
X14470936Y6729682D01*
X14529064Y6729682D01*
X14580252Y6719500D01*
X14580256Y6719500D01*
X14919744Y6719500D01*
X14919748Y6719500D01*
X14970936Y6729682D01*
X15029064Y6729682D01*
X15080252Y6719500D01*
X15128336Y6719500D01*
X15202836Y6699538D01*
X15257374Y6645000D01*
X15277336Y6570500D01*
X15274697Y6542581D01*
X15260773Y6469588D01*
X15270696Y6311864D01*
X15270697Y6311859D01*
X15319533Y6161559D01*
X15404214Y6028122D01*
X15519419Y5919937D01*
X15547192Y5904669D01*
X15657908Y5843803D01*
X15810981Y5804500D01*
X15810983Y5804500D01*
X15929351Y5804500D01*
X15929351Y5804501D01*
X16046792Y5819336D01*
X16193732Y5877514D01*
X16321587Y5970406D01*
X16422324Y6092177D01*
X16422328Y6092187D01*
X16424051Y6094899D01*
X16426243Y6096916D01*
X16428299Y6099400D01*
X16428639Y6099119D01*
X16480822Y6147107D01*
X16556092Y6163936D01*
X16629692Y6140874D01*
X16681900Y6084103D01*
X16689175Y6067906D01*
X16695180Y6052074D01*
X16695182Y6052070D01*
X16791817Y5912071D01*
X16791819Y5912070D01*
X16791820Y5912068D01*
X16864508Y5847673D01*
X16909771Y5807573D01*
X16919146Y5799268D01*
X16919148Y5799266D01*
X17069775Y5720210D01*
X17234944Y5679500D01*
X17405056Y5679500D01*
X17570225Y5720210D01*
X17720852Y5799266D01*
X17848183Y5912071D01*
X17944818Y6052070D01*
X18005140Y6211128D01*
X18020500Y6337628D01*
X18020500Y7522372D01*
X18005140Y7648872D01*
X17944818Y7807930D01*
X17848183Y7947929D01*
X17848180Y7947932D01*
X17848179Y7947933D01*
X17720855Y8060732D01*
X17720853Y8060733D01*
X17720852Y8060734D01*
X17605541Y8121255D01*
X17548854Y8173551D01*
X17525909Y8247187D01*
X17533434Y8300304D01*
X17706646Y8819941D01*
X17749142Y8884302D01*
X17778379Y8904555D01*
X17781740Y8906332D01*
X17887853Y8984646D01*
X17887855Y8984648D01*
X17966169Y9090760D01*
X18009729Y9215249D01*
X18012499Y9244786D01*
X18012500Y9244805D01*
X18012500Y9335000D01*
X17626718Y9335000D01*
X17552218Y9354962D01*
X17521359Y9378641D01*
X17419359Y9480641D01*
X17380795Y9547436D01*
X17380795Y9615255D01*
X17331724Y9602106D01*
X17331744Y9601763D01*
X17330105Y9601672D01*
X17326000Y9600572D01*
X17322365Y9601243D01*
X17232264Y9596237D01*
X17156772Y9612037D01*
X17099293Y9663466D01*
X17081152Y9718709D01*
X17466730Y9718709D01*
X17486154Y9729923D01*
X17524718Y9735000D01*
X18012500Y9735000D01*
X18012500Y9825196D01*
X18012499Y9825215D01*
X18009729Y9854752D01*
X17966169Y9979241D01*
X17887855Y10085353D01*
X17887852Y10085356D01*
X17781740Y10163670D01*
X17657251Y10207230D01*
X17627714Y10210000D01*
X17475000Y10210000D01*
X17475000Y9749572D01*
X17466730Y9718709D01*
X17081152Y9718709D01*
X17075229Y9736744D01*
X17075000Y9745008D01*
X17075000Y10210000D01*
X16922285Y10210000D01*
X16892748Y10207230D01*
X16768259Y10163670D01*
X16662147Y10085356D01*
X16662144Y10085353D01*
X16583829Y9979240D01*
X16583828Y9979238D01*
X16553402Y9892284D01*
X16509954Y9828558D01*
X16440464Y9795094D01*
X16363552Y9800858D01*
X16299826Y9844306D01*
X16272125Y9892285D01*
X16268431Y9902841D01*
X16241616Y9979475D01*
X16205595Y10028282D01*
X16163212Y10085710D01*
X16163209Y10085713D01*
X16061021Y10161131D01*
X16012932Y10221432D01*
X16000500Y10281016D01*
X16000500Y12288922D01*
X16000969Y12297270D01*
X16001822Y12304844D01*
X16005270Y12335443D01*
X15994210Y12393897D01*
X15985348Y12452695D01*
X15982832Y12460851D01*
X15980025Y12468872D01*
X15980024Y12468879D01*
X15952219Y12521487D01*
X15926425Y12575050D01*
X15926421Y12575055D01*
X15921614Y12582107D01*
X15916565Y12588947D01*
X15874505Y12631008D01*
X15834059Y12674598D01*
X15834057Y12674599D01*
X15834055Y12674602D01*
X15834051Y12674605D01*
X15825329Y12681560D01*
X15826083Y12682506D01*
X15812745Y12692767D01*
X14720259Y13785252D01*
X19424500Y13785252D01*
X19436132Y13726770D01*
X19436133Y13726769D01*
X19480448Y13660448D01*
X19546769Y13616133D01*
X19605252Y13604500D01*
X21344748Y13604500D01*
X21403231Y13616133D01*
X21469552Y13660448D01*
X21513867Y13726769D01*
X21525500Y13785252D01*
X21525500Y15524748D01*
X21513867Y15583231D01*
X21469552Y15649552D01*
X21403231Y15693867D01*
X21403230Y15693868D01*
X21344748Y15705500D01*
X19605252Y15705500D01*
X19546769Y15693868D01*
X19480448Y15649552D01*
X19436132Y15583231D01*
X19424500Y15524749D01*
X19424500Y13785252D01*
X14720259Y13785252D01*
X14713200Y13792311D01*
X14707628Y13798546D01*
X14691215Y13819127D01*
X14683677Y13828580D01*
X14634526Y13862091D01*
X14622407Y13871035D01*
X14586680Y13897403D01*
X14579122Y13901398D01*
X14561412Y13909926D01*
X14562143Y13911445D01*
X14507734Y13945637D01*
X14471698Y14013830D01*
X14469521Y14068461D01*
X14475769Y14111344D01*
X14475770Y14111352D01*
X14475770Y15202869D01*
X14475769Y15202879D01*
X14465843Y15271004D01*
X14465843Y15271005D01*
X14414469Y15376092D01*
X14369411Y15421150D01*
X14330847Y15487945D01*
X14325770Y15526509D01*
X14325770Y15599059D01*
X14328942Y15629639D01*
X14329587Y15632714D01*
X14330313Y15636176D01*
X14328646Y15649552D01*
X14326343Y15668029D01*
X14325770Y15677253D01*
X14325770Y15679900D01*
X14325770Y15679901D01*
X14322182Y15701402D01*
X14315843Y15752254D01*
X14315842Y15752256D01*
X14313749Y15759287D01*
X14313744Y15759301D01*
X14313738Y15759322D01*
X14311362Y15766241D01*
X14311362Y15766242D01*
X14286972Y15811311D01*
X14264468Y15857344D01*
X14264466Y15857346D01*
X14260200Y15863321D01*
X14255686Y15869121D01*
X14217984Y15903829D01*
X14173959Y15947853D01*
X14169410Y15952403D01*
X14130847Y16019196D01*
X14125770Y16057760D01*
X14125770Y16258862D01*
X14128941Y16289438D01*
X14130312Y16295976D01*
X14127601Y16317726D01*
X14126343Y16327823D01*
X14125770Y16337046D01*
X14125770Y16339699D01*
X14122180Y16361212D01*
X14115843Y16412054D01*
X14113746Y16419094D01*
X14111361Y16426044D01*
X14086974Y16471106D01*
X14064470Y16517142D01*
X14060201Y16523119D01*
X14055686Y16528921D01*
X14017993Y16563620D01*
X13644411Y16937202D01*
X13611041Y16995000D01*
X19439617Y16995000D01*
X19440192Y16989161D01*
X19500232Y16791239D01*
X19500234Y16791234D01*
X19597725Y16608839D01*
X19597730Y16608832D01*
X19728945Y16448946D01*
X19888831Y16317731D01*
X19888838Y16317726D01*
X20071233Y16220235D01*
X20071240Y16220232D01*
X20269164Y16160192D01*
X20275000Y16159619D01*
X20275000Y16546709D01*
X20294962Y16621209D01*
X20349500Y16675747D01*
X20424000Y16695709D01*
X20434628Y16695330D01*
X20439231Y16695001D01*
X20439237Y16695000D01*
X20439243Y16695000D01*
X20510770Y16695000D01*
X20515370Y16695329D01*
X20591105Y16680732D01*
X20649394Y16630224D01*
X20674619Y16557338D01*
X20674999Y16546709D01*
X20674999Y16159619D01*
X20680835Y16160192D01*
X20878759Y16220232D01*
X20878766Y16220235D01*
X21061161Y16317726D01*
X21061168Y16317731D01*
X21221054Y16448946D01*
X21352269Y16608832D01*
X21352274Y16608839D01*
X21449765Y16791234D01*
X21449767Y16791239D01*
X21509807Y16989161D01*
X21510383Y16995000D01*
X21124000Y16995000D01*
X21049500Y17014962D01*
X20994962Y17069500D01*
X20975000Y17144000D01*
X20975000Y17246000D01*
X20994962Y17320500D01*
X21049500Y17375038D01*
X21124000Y17395000D01*
X21510382Y17395000D01*
X21509807Y17400840D01*
X21449767Y17598762D01*
X21449765Y17598767D01*
X21352274Y17781162D01*
X21352269Y17781169D01*
X21221054Y17941055D01*
X21061168Y18072270D01*
X21061161Y18072275D01*
X20878766Y18169766D01*
X20878761Y18169768D01*
X20680838Y18229808D01*
X20680841Y18229808D01*
X20674999Y18230383D01*
X20674999Y17843292D01*
X20655037Y17768792D01*
X20600499Y17714254D01*
X20525999Y17694292D01*
X20515385Y17694671D01*
X20510778Y17695000D01*
X20510763Y17695000D01*
X20439237Y17695000D01*
X20439234Y17695000D01*
X20434613Y17694670D01*
X20358880Y17709276D01*
X20300596Y17759790D01*
X20275378Y17832679D01*
X20275000Y17843292D01*
X20275000Y18230383D01*
X20269160Y18229808D01*
X20071238Y18169768D01*
X20071233Y18169766D01*
X19888838Y18072275D01*
X19888831Y18072270D01*
X19728945Y17941055D01*
X19597730Y17781169D01*
X19597725Y17781162D01*
X19500234Y17598767D01*
X19500232Y17598762D01*
X19440192Y17400840D01*
X19439617Y17395000D01*
X19826000Y17395000D01*
X19900500Y17375038D01*
X19955038Y17320500D01*
X19975000Y17246000D01*
X19975000Y17144000D01*
X19955038Y17069500D01*
X19900500Y17014962D01*
X19826000Y16995000D01*
X19439617Y16995000D01*
X13611041Y16995000D01*
X13605847Y17003997D01*
X13600770Y17042561D01*
X13600770Y21225170D01*
X13620732Y21299670D01*
X13644411Y21330529D01*
X14894740Y22580858D01*
X14961535Y22619422D01*
X15000099Y22624499D01*
X18281738Y22624499D01*
X18356238Y22604537D01*
X18410776Y22549999D01*
X18419396Y22532519D01*
X18475463Y22397160D01*
X18564224Y22281485D01*
X18571718Y22271718D01*
X18697159Y22175464D01*
X18843238Y22114956D01*
X18843241Y22114956D01*
X18843243Y22114955D01*
X18843240Y22114955D01*
X18999997Y22094318D01*
X19009629Y22094318D01*
X19084129Y22074356D01*
X19138667Y22019818D01*
X19158629Y21945318D01*
X19138667Y21870818D01*
X19114988Y21839959D01*
X17519170Y20244141D01*
X17452375Y20205577D01*
X17413811Y20200500D01*
X15576209Y20200500D01*
X15565904Y20201215D01*
X15554733Y20202774D01*
X15507285Y20200580D01*
X15503844Y20200500D01*
X15484642Y20200500D01*
X15482848Y20200164D01*
X15472609Y20198977D01*
X15446046Y20197749D01*
X15442508Y20197585D01*
X15442507Y20197585D01*
X15442502Y20197584D01*
X15438817Y20195956D01*
X15406030Y20185802D01*
X15402067Y20185062D01*
X15402065Y20185060D01*
X15376441Y20169197D01*
X15367309Y20164384D01*
X15339734Y20152208D01*
X15336883Y20149356D01*
X15309974Y20128042D01*
X15306551Y20125923D01*
X15306548Y20125920D01*
X15288388Y20101873D01*
X15281608Y20094081D01*
X15024143Y19836617D01*
X14957348Y19798053D01*
X14899337Y19794251D01*
X14812504Y19805682D01*
X14812497Y19805682D01*
X14655742Y19785046D01*
X14509659Y19724537D01*
X14384218Y19628283D01*
X14384217Y19628282D01*
X14287963Y19502841D01*
X14227454Y19356758D01*
X14206818Y19200003D01*
X14206818Y19199998D01*
X14227454Y19043243D01*
X14287963Y18897160D01*
X14365828Y18795685D01*
X14384218Y18771718D01*
X14509659Y18675464D01*
X14655738Y18614956D01*
X14655741Y18614956D01*
X14655743Y18614955D01*
X14655740Y18614955D01*
X14812497Y18594318D01*
X14812500Y18594318D01*
X14812503Y18594318D01*
X14969257Y18614955D01*
X14969258Y18614956D01*
X14969262Y18614956D01*
X15115341Y18675464D01*
X15240782Y18771718D01*
X15337036Y18897159D01*
X15397544Y19043238D01*
X15418182Y19200000D01*
X15412489Y19243243D01*
X15406750Y19286839D01*
X15416817Y19363307D01*
X15449116Y19411646D01*
X15593330Y19555859D01*
X15660125Y19594423D01*
X15698689Y19599500D01*
X15930007Y19599500D01*
X16004507Y19579538D01*
X16059045Y19525000D01*
X16079007Y19450500D01*
X16067666Y19393482D01*
X16052454Y19356758D01*
X16031818Y19200003D01*
X16031818Y19199998D01*
X16052454Y19043243D01*
X16112963Y18897160D01*
X16190828Y18795685D01*
X16209218Y18771718D01*
X16334659Y18675464D01*
X16480738Y18614956D01*
X16480741Y18614956D01*
X16480743Y18614955D01*
X16480740Y18614955D01*
X16637497Y18594318D01*
X16637500Y18594318D01*
X16637503Y18594318D01*
X16794257Y18614955D01*
X16794258Y18614956D01*
X16794262Y18614956D01*
X16940341Y18675464D01*
X17065782Y18771718D01*
X17119101Y18841206D01*
X17180291Y18888158D01*
X17237311Y18899500D01*
X17536291Y18899500D01*
X17546596Y18898785D01*
X17557764Y18897228D01*
X17557765Y18897227D01*
X17557765Y18897228D01*
X17557766Y18897227D01*
X17605215Y18899420D01*
X17608656Y18899500D01*
X17627842Y18899500D01*
X17627844Y18899500D01*
X17629612Y18899831D01*
X17639887Y18901024D01*
X17648434Y18901419D01*
X17669992Y18902415D01*
X17673670Y18904040D01*
X17706478Y18914200D01*
X17710433Y18914939D01*
X17736066Y18930811D01*
X17745175Y18935613D01*
X17772765Y18947794D01*
X17775600Y18950631D01*
X17802534Y18971966D01*
X17805952Y18974081D01*
X17824113Y18998131D01*
X17830888Y19005919D01*
X21567449Y22742479D01*
X21575240Y22749257D01*
X21584223Y22756040D01*
X21584228Y22756042D01*
X21616245Y22791164D01*
X21618569Y22793599D01*
X21632175Y22807203D01*
X21633201Y22808702D01*
X21639597Y22816780D01*
X21659916Y22839067D01*
X21661368Y22842817D01*
X21677388Y22873208D01*
X21679657Y22876520D01*
X21686557Y22905862D01*
X21689612Y22915724D01*
X21700500Y22943827D01*
X21700500Y22947853D01*
X21704458Y22981968D01*
X21705379Y22985882D01*
X21701214Y23015738D01*
X21700500Y23026036D01*
X21700500Y26141337D01*
X21701216Y26151644D01*
X21702774Y26162813D01*
X21700580Y26210277D01*
X21700500Y26213719D01*
X21700500Y26232888D01*
X21700500Y26232894D01*
X21700165Y26234683D01*
X21698977Y26244930D01*
X21697585Y26275041D01*
X21695957Y26278727D01*
X21685800Y26311529D01*
X21685061Y26315483D01*
X21669198Y26341102D01*
X21664382Y26350240D01*
X21652206Y26377815D01*
X21649359Y26380662D01*
X21628037Y26407582D01*
X21625919Y26411002D01*
X21625917Y26411004D01*
X21601869Y26429164D01*
X21594076Y26435945D01*
X20943536Y27086485D01*
X20904972Y27153280D01*
X20904972Y27230408D01*
X20943536Y27297203D01*
X20991869Y27329499D01*
X21102841Y27375464D01*
X21228282Y27471718D01*
X21324536Y27597159D01*
X21385044Y27743238D01*
X21399038Y27849529D01*
X21405682Y27899998D01*
X21405682Y27900003D01*
X21385045Y28056758D01*
X21385044Y28056760D01*
X21385044Y28056762D01*
X21324536Y28202841D01*
X21228282Y28328282D01*
X21158793Y28381603D01*
X21111841Y28442792D01*
X21100499Y28499808D01*
X21100499Y29213813D01*
X21120461Y29288312D01*
X21144136Y29319167D01*
X21314886Y29489917D01*
X21381679Y29528479D01*
X21458807Y29528479D01*
X21525602Y29489915D01*
X21557901Y29441576D01*
X21612812Y29309009D01*
X21628694Y29288312D01*
X21709067Y29183567D01*
X21834508Y29087313D01*
X21980587Y29026805D01*
X21980590Y29026805D01*
X21980592Y29026804D01*
X21980589Y29026804D01*
X22137346Y29006167D01*
X22137349Y29006167D01*
X22224187Y29017600D01*
X22300652Y29007534D01*
X22348993Y28975234D01*
X23455858Y27868369D01*
X23494422Y27801574D01*
X23499499Y27763010D01*
X23499499Y23563708D01*
X23498785Y23553410D01*
X23497227Y23542237D01*
X23497227Y23542236D01*
X23497227Y23542235D01*
X23499421Y23494764D01*
X23499500Y23491346D01*
X23499500Y23472159D01*
X23499502Y23472135D01*
X23499834Y23470358D01*
X23501023Y23460111D01*
X23502415Y23430008D01*
X23504042Y23426323D01*
X23514199Y23393525D01*
X23514939Y23389566D01*
X23530802Y23363944D01*
X23535617Y23354811D01*
X23547792Y23327238D01*
X23547793Y23327237D01*
X23547794Y23327235D01*
X23550642Y23324387D01*
X23571962Y23297471D01*
X23574081Y23294048D01*
X23598129Y23275888D01*
X23605922Y23269106D01*
X24780858Y22094171D01*
X24819422Y22027376D01*
X24824499Y21988812D01*
X24824499Y11699812D01*
X24804537Y11625312D01*
X24766206Y11581603D01*
X24696717Y11528282D01*
X24600463Y11402841D01*
X24539954Y11256758D01*
X24519318Y11100003D01*
X24519318Y11099998D01*
X24539954Y10943243D01*
X24600463Y10797160D01*
X24690731Y10679521D01*
X24696718Y10671718D01*
X24822159Y10575464D01*
X24968238Y10514956D01*
X24968241Y10514956D01*
X24968243Y10514955D01*
X24968240Y10514955D01*
X25124997Y10494318D01*
X25125000Y10494318D01*
X25125003Y10494318D01*
X25281757Y10514955D01*
X25281758Y10514956D01*
X25281762Y10514956D01*
X25427841Y10575464D01*
X25553282Y10671718D01*
X25649536Y10797159D01*
X25710044Y10943238D01*
X25730682Y11100000D01*
X25730682Y11100003D01*
X25710045Y11256758D01*
X25710044Y11256760D01*
X25710044Y11256762D01*
X25649536Y11402841D01*
X25553282Y11528282D01*
X25553279Y11528285D01*
X25483794Y11581603D01*
X25436842Y11642793D01*
X25425500Y11699812D01*
X25425500Y22111293D01*
X25426216Y22121600D01*
X25427773Y22132765D01*
X25425580Y22180214D01*
X25425500Y22183655D01*
X25425500Y22202841D01*
X25425500Y22202844D01*
X25425166Y22204626D01*
X25423976Y22214878D01*
X25422585Y22244992D01*
X25420957Y22248679D01*
X25410799Y22281485D01*
X25410061Y22285432D01*
X25410061Y22285433D01*
X25394193Y22311060D01*
X25389381Y22320191D01*
X25380042Y22341341D01*
X25377206Y22347765D01*
X25374358Y22350612D01*
X25353037Y22377532D01*
X25350919Y22380952D01*
X25350917Y22380954D01*
X25326869Y22399114D01*
X25319076Y22405895D01*
X24657643Y23067328D01*
X24619079Y23134123D01*
X24619079Y23211251D01*
X24657643Y23278046D01*
X24705977Y23310342D01*
X24802841Y23350464D01*
X24928282Y23446718D01*
X25024536Y23572159D01*
X25085044Y23718238D01*
X25094316Y23788671D01*
X25123830Y23859925D01*
X25136675Y23874573D01*
X26788730Y25526629D01*
X26794945Y25532183D01*
X26824989Y25556140D01*
X26858499Y25605291D01*
X26893812Y25653137D01*
X26893812Y25653138D01*
X26893814Y25653140D01*
X26897793Y25660669D01*
X26901487Y25668342D01*
X26901491Y25668346D01*
X26919026Y25725197D01*
X26938665Y25781320D01*
X26938665Y25781322D01*
X26940246Y25789680D01*
X26941519Y25798120D01*
X26941519Y25857592D01*
X26941589Y25859466D01*
X26943743Y25917029D01*
X26943742Y25917033D01*
X26942492Y25928128D01*
X26943704Y25928265D01*
X26941518Y25944952D01*
X26941518Y28299500D01*
X26941518Y30697615D01*
X26941985Y30705925D01*
X26946289Y30744117D01*
X26939710Y30778886D01*
X26935230Y30802563D01*
X26926367Y30861367D01*
X26926367Y30861369D01*
X26926365Y30861373D01*
X26923847Y30869537D01*
X26921042Y30877555D01*
X26907141Y30903855D01*
X26893241Y30930155D01*
X26867444Y30983724D01*
X26867442Y30983726D01*
X26862633Y30990781D01*
X26857584Y30997621D01*
X26815525Y31039681D01*
X26775075Y31083275D01*
X26766348Y31090234D01*
X26767102Y31091180D01*
X26753764Y31101441D01*
X26685160Y31170045D01*
X26646596Y31236840D01*
X26641519Y31275404D01*
X26641519Y35454932D01*
X26661481Y35529432D01*
X26699814Y35573142D01*
X26702839Y35575464D01*
X26702841Y35575464D01*
X26828282Y35671718D01*
X26924536Y35797159D01*
X26985044Y35943238D01*
X26988794Y35971718D01*
X27005682Y36099998D01*
X27005682Y36100003D01*
X26985045Y36256758D01*
X26985044Y36256760D01*
X26985044Y36256762D01*
X26924536Y36402841D01*
X26828282Y36528282D01*
X26823419Y36532014D01*
X26702840Y36624537D01*
X26605507Y36664853D01*
X26556762Y36685044D01*
X26556760Y36685045D01*
X26556756Y36685046D01*
X26556759Y36685046D01*
X26400003Y36705682D01*
X26399997Y36705682D01*
X26243242Y36685046D01*
X26147539Y36645404D01*
X26071070Y36635337D01*
X25999813Y36664853D01*
X25952861Y36726042D01*
X25941519Y36783062D01*
X25941519Y49545275D01*
X25942235Y49555582D01*
X25943792Y49566747D01*
X25941599Y49614196D01*
X25941519Y49617637D01*
X25941519Y49636822D01*
X25941519Y49636825D01*
X25941185Y49638607D01*
X25939995Y49648859D01*
X25938604Y49678973D01*
X25936977Y49682658D01*
X25926818Y49715463D01*
X25926080Y49719414D01*
X25926079Y49719416D01*
X25910218Y49745033D01*
X25905402Y49754170D01*
X25893225Y49781746D01*
X25893225Y49781747D01*
X25890377Y49784595D01*
X25869054Y49811515D01*
X25866938Y49814933D01*
X25866936Y49814935D01*
X25842892Y49833092D01*
X25835099Y49839873D01*
X23019141Y52655832D01*
X22980577Y52722627D01*
X22975500Y52761191D01*
X22975500Y52866072D01*
X22975500Y54194748D01*
X22963867Y54253231D01*
X22919552Y54319552D01*
X22853231Y54363867D01*
X22853230Y54363868D01*
X22794748Y54375500D01*
X21055252Y54375500D01*
X20996769Y54363868D01*
X20930448Y54319552D01*
X20886132Y54253231D01*
X20874500Y54194749D01*
X20874500Y52455252D01*
X20886132Y52396770D01*
X20886133Y52396769D01*
X20930448Y52330448D01*
X20996769Y52286133D01*
X21055252Y52274500D01*
X21851000Y52274500D01*
X21925500Y52254538D01*
X21980038Y52200000D01*
X22000000Y52125500D01*
X22000000Y52125499D01*
X21999999Y51983015D01*
X21980036Y51908515D01*
X21925498Y51853978D01*
X21865604Y51834734D01*
X21719072Y51820302D01*
X21719063Y51820300D01*
X21521044Y51760232D01*
X21338557Y51662690D01*
X21338547Y51662683D01*
X21178590Y51531411D01*
X21178589Y51531410D01*
X21047317Y51371453D01*
X21047310Y51371443D01*
X20949768Y51188956D01*
X20889700Y50990938D01*
X20869417Y50785001D01*
X20889700Y50579063D01*
X20949768Y50381045D01*
X21047310Y50198558D01*
X21047313Y50198554D01*
X21047315Y50198550D01*
X21178590Y50038590D01*
X21338550Y49907315D01*
X21521046Y49809768D01*
X21719066Y49749700D01*
X21865605Y49735267D01*
X21937788Y49708099D01*
X21986718Y49648478D01*
X21999999Y49586985D01*
X21999999Y49443016D01*
X21980037Y49368516D01*
X21925499Y49313978D01*
X21865604Y49294734D01*
X21719072Y49280302D01*
X21719063Y49280300D01*
X21521044Y49220232D01*
X21338557Y49122690D01*
X21338547Y49122683D01*
X21178590Y48991411D01*
X21178589Y48991410D01*
X21047317Y48831453D01*
X21047310Y48831443D01*
X20949768Y48648956D01*
X20889700Y48450938D01*
X20869417Y48245001D01*
X20889700Y48039063D01*
X20949768Y47841045D01*
X21047310Y47658558D01*
X21047313Y47658554D01*
X21047315Y47658550D01*
X21178590Y47498590D01*
X21338550Y47367315D01*
X21338555Y47367313D01*
X21338557Y47367311D01*
X21490394Y47286152D01*
X21521046Y47269768D01*
X21719063Y47209701D01*
X21719066Y47209700D01*
X21925000Y47189417D01*
X22130934Y47209700D01*
X22328954Y47269768D01*
X22328956Y47269770D01*
X22328959Y47269770D01*
X22335723Y47272571D01*
X22336426Y47270873D01*
X22401950Y47286152D01*
X22475758Y47263765D01*
X22502438Y47242591D01*
X23197878Y46547151D01*
X23236442Y46480356D01*
X23241519Y46441792D01*
X23241519Y45986636D01*
X23221557Y45912136D01*
X23167019Y45857598D01*
X23092519Y45837636D01*
X23018019Y45857598D01*
X22963481Y45912136D01*
X22949935Y45943383D01*
X22899767Y46108762D01*
X22899765Y46108767D01*
X22802274Y46291162D01*
X22802269Y46291169D01*
X22671054Y46451055D01*
X22511168Y46582270D01*
X22511161Y46582275D01*
X22328766Y46679766D01*
X22328761Y46679768D01*
X22130838Y46739808D01*
X22130841Y46739808D01*
X22125000Y46740383D01*
X22125000Y46353292D01*
X22105038Y46278792D01*
X22050500Y46224254D01*
X21976000Y46204292D01*
X21965387Y46204670D01*
X21960766Y46205000D01*
X21960763Y46205000D01*
X21889237Y46205000D01*
X21889234Y46205000D01*
X21884613Y46204670D01*
X21808880Y46219276D01*
X21750596Y46269790D01*
X21725378Y46342679D01*
X21725000Y46353292D01*
X21725000Y46740383D01*
X21719160Y46739808D01*
X21521238Y46679768D01*
X21521233Y46679766D01*
X21338838Y46582275D01*
X21338831Y46582270D01*
X21178945Y46451055D01*
X21047730Y46291169D01*
X21047725Y46291162D01*
X20950234Y46108767D01*
X20950232Y46108762D01*
X20890192Y45910840D01*
X20889617Y45905000D01*
X21276000Y45905000D01*
X21350500Y45885038D01*
X21405038Y45830500D01*
X21425000Y45756000D01*
X21425000Y45654000D01*
X21405038Y45579500D01*
X21350500Y45524962D01*
X21276000Y45505000D01*
X20889617Y45505000D01*
X20890192Y45499161D01*
X20950232Y45301239D01*
X20950234Y45301234D01*
X21047725Y45118839D01*
X21047730Y45118832D01*
X21178945Y44958946D01*
X21338831Y44827731D01*
X21338838Y44827726D01*
X21521233Y44730235D01*
X21521240Y44730232D01*
X21719164Y44670192D01*
X21725000Y44669619D01*
X21725000Y45056709D01*
X21744962Y45131209D01*
X21799500Y45185747D01*
X21874000Y45205709D01*
X21884628Y45205330D01*
X21889231Y45205001D01*
X21889237Y45205000D01*
X21889243Y45205000D01*
X21960757Y45205000D01*
X21960763Y45205000D01*
X21960768Y45205001D01*
X21965372Y45205330D01*
X22041107Y45190732D01*
X22099395Y45140223D01*
X22124621Y45067337D01*
X22125000Y45056709D01*
X22125000Y44669619D01*
X22130835Y44670192D01*
X22328759Y44730232D01*
X22328766Y44730235D01*
X22511161Y44827726D01*
X22511168Y44827731D01*
X22671054Y44958946D01*
X22802269Y45118832D01*
X22802274Y45118839D01*
X22899765Y45301234D01*
X22899768Y45301241D01*
X22949935Y45466617D01*
X22990664Y45532115D01*
X23058685Y45568473D01*
X23135771Y45565949D01*
X23201269Y45525220D01*
X23237627Y45457199D01*
X23241519Y45423365D01*
X23241519Y43448356D01*
X23221557Y43373856D01*
X23167019Y43319318D01*
X23092519Y43299356D01*
X23018019Y43319318D01*
X22963481Y43373856D01*
X22949935Y43405104D01*
X22900231Y43568956D01*
X22802689Y43751443D01*
X22802687Y43751445D01*
X22802685Y43751450D01*
X22671410Y43911410D01*
X22511450Y44042685D01*
X22511446Y44042687D01*
X22511442Y44042690D01*
X22328955Y44140232D01*
X22130936Y44200300D01*
X22130937Y44200300D01*
X21925000Y44220583D01*
X21719062Y44200300D01*
X21521044Y44140232D01*
X21338557Y44042690D01*
X21338547Y44042683D01*
X21178590Y43911411D01*
X21178589Y43911410D01*
X21047317Y43751453D01*
X21047310Y43751443D01*
X20949768Y43568956D01*
X20889700Y43370938D01*
X20869417Y43165000D01*
X20889700Y42959063D01*
X20949768Y42761045D01*
X21047310Y42578558D01*
X21047313Y42578554D01*
X21047315Y42578550D01*
X21047317Y42578548D01*
X21162414Y42438300D01*
X21178590Y42418590D01*
X21338550Y42287315D01*
X21338555Y42287313D01*
X21338557Y42287311D01*
X21488811Y42206998D01*
X21521046Y42189768D01*
X21719063Y42129701D01*
X21719066Y42129700D01*
X21925000Y42109417D01*
X22130934Y42129700D01*
X22328954Y42189768D01*
X22511450Y42287315D01*
X22671410Y42418590D01*
X22802685Y42578550D01*
X22900232Y42761046D01*
X22949935Y42924898D01*
X22990663Y42990394D01*
X23058684Y43026753D01*
X23135771Y43024229D01*
X23201268Y42983501D01*
X23237627Y42915480D01*
X23241519Y42881645D01*
X23241518Y42221692D01*
X23240803Y42211392D01*
X23239246Y42200222D01*
X23239246Y42200217D01*
X23239246Y42200216D01*
X23241439Y42152746D01*
X23241518Y42149332D01*
X23241518Y42130134D01*
X23241519Y42130124D01*
X23241853Y42128339D01*
X23243041Y42118092D01*
X23244433Y42087989D01*
X23246061Y42084304D01*
X23256218Y42051506D01*
X23256958Y42047547D01*
X23272821Y42021925D01*
X23277636Y42012792D01*
X23289811Y41985219D01*
X23289812Y41985218D01*
X23289813Y41985216D01*
X23292661Y41982368D01*
X23313981Y41955452D01*
X23316100Y41952029D01*
X23340148Y41933869D01*
X23347941Y41927087D01*
X23797378Y41477652D01*
X23835942Y41410857D01*
X23841019Y41372293D01*
X23841019Y32927710D01*
X23821057Y32853210D01*
X23797378Y32822351D01*
X21365682Y30390656D01*
X21298887Y30352092D01*
X21221759Y30352092D01*
X21154964Y30390656D01*
X21122665Y30438995D01*
X21104513Y30482818D01*
X21008259Y30608259D01*
X21008258Y30608260D01*
X20882817Y30704514D01*
X20802921Y30737608D01*
X20736739Y30765021D01*
X20736737Y30765022D01*
X20736733Y30765023D01*
X20736736Y30765023D01*
X20579980Y30785659D01*
X20579974Y30785659D01*
X20528526Y30778886D01*
X20452057Y30788953D01*
X20403719Y30821252D01*
X13731520Y37493451D01*
X13692956Y37560246D01*
X13692956Y37637374D01*
X13718669Y37689514D01*
X13724536Y37697159D01*
X13785044Y37843238D01*
X13785044Y37843239D01*
X13785045Y37843241D01*
X13805682Y37999998D01*
X13805682Y38000003D01*
X13785045Y38156758D01*
X13785044Y38156760D01*
X13785044Y38156762D01*
X13724536Y38302841D01*
X13628282Y38428282D01*
X13502841Y38524536D01*
X13502840Y38524537D01*
X13422944Y38557631D01*
X13356762Y38585044D01*
X13356760Y38585045D01*
X13356756Y38585046D01*
X13356759Y38585046D01*
X13200003Y38605682D01*
X13199997Y38605682D01*
X13043242Y38585046D01*
X12897159Y38524537D01*
X12771718Y38428283D01*
X12771717Y38428282D01*
X12675463Y38302841D01*
X12614954Y38156758D01*
X12594318Y38000003D01*
X12594318Y37990371D01*
X12574356Y37915871D01*
X12519818Y37861333D01*
X12445318Y37841371D01*
X12370818Y37861333D01*
X12339959Y37885012D01*
X10357536Y39867436D01*
X10350754Y39875229D01*
X10343958Y39884228D01*
X10343957Y39884228D01*
X10308838Y39916244D01*
X10306361Y39918610D01*
X10292797Y39932174D01*
X10292791Y39932179D01*
X10291291Y39933207D01*
X10283206Y39939612D01*
X10260932Y39959917D01*
X10260930Y39959918D01*
X10257174Y39961373D01*
X10226799Y39977383D01*
X10223478Y39979658D01*
X10194142Y39986558D01*
X10184278Y39989613D01*
X10156174Y40000500D01*
X10156173Y40000500D01*
X10152150Y40000500D01*
X10118037Y40004458D01*
X10114122Y40005379D01*
X10114118Y40005379D01*
X10107517Y40004458D01*
X10084266Y40001215D01*
X10073966Y40000500D01*
X8798890Y40000500D01*
X8724390Y40020462D01*
X8680680Y40058795D01*
X8627361Y40128282D01*
X8627360Y40128283D01*
X8501919Y40224537D01*
X8422023Y40257631D01*
X8355841Y40285044D01*
X8355839Y40285045D01*
X8355835Y40285046D01*
X8355838Y40285046D01*
X8199082Y40305682D01*
X8199076Y40305682D01*
X8042321Y40285046D01*
X7896238Y40224537D01*
X7770797Y40128283D01*
X7770796Y40128282D01*
X7674542Y40002841D01*
X7614033Y39856758D01*
X7593396Y39700003D01*
X7593396Y39699998D01*
X7614033Y39543243D01*
X7674542Y39397160D01*
X7756688Y39290105D01*
X7786203Y39218848D01*
X7776136Y39142380D01*
X7756688Y39108695D01*
X7675463Y39002841D01*
X7614954Y38856758D01*
X7594318Y38700003D01*
X7594318Y38699998D01*
X7614954Y38543243D01*
X7675463Y38397160D01*
X7757148Y38290706D01*
X7786663Y38219449D01*
X7776596Y38142981D01*
X7757149Y38109297D01*
X7675463Y38002840D01*
X7614954Y37856758D01*
X7594318Y37700003D01*
X7594318Y37699998D01*
X7614954Y37543243D01*
X7675463Y37397160D01*
X7767964Y37276610D01*
X7797479Y37205353D01*
X7787412Y37128885D01*
X7767964Y37095200D01*
X7674542Y36973450D01*
X7614033Y36827367D01*
X7593396Y36670612D01*
X7593396Y36670607D01*
X7614033Y36513852D01*
X7674542Y36367769D01*
X7759721Y36256762D01*
X7770797Y36242327D01*
X7896238Y36146073D01*
X8042317Y36085565D01*
X8042320Y36085565D01*
X8042322Y36085564D01*
X8042319Y36085564D01*
X8199076Y36064927D01*
X8199079Y36064927D01*
X8285917Y36076360D01*
X8362382Y36066294D01*
X8410723Y36033994D01*
X12741679Y31703038D01*
X12748460Y31695246D01*
X12755257Y31686245D01*
X12790362Y31654242D01*
X12792852Y31651865D01*
X12798735Y31645982D01*
X12837299Y31579187D01*
X12837299Y31502059D01*
X12811587Y31449920D01*
X12775465Y31402844D01*
X12775462Y31402840D01*
X12719039Y31266619D01*
X12672087Y31205429D01*
X12600830Y31175913D01*
X12581381Y31174638D01*
X10099811Y31174638D01*
X10025311Y31194600D01*
X9981601Y31232933D01*
X9963316Y31256762D01*
X9928282Y31302420D01*
X9802841Y31398674D01*
X9802840Y31398675D01*
X9679122Y31449920D01*
X9656762Y31459182D01*
X9656760Y31459183D01*
X9656756Y31459184D01*
X9656759Y31459184D01*
X9500003Y31479820D01*
X9499997Y31479820D01*
X9343242Y31459184D01*
X9197159Y31398675D01*
X9071718Y31302421D01*
X9071717Y31302420D01*
X8975463Y31176979D01*
X8914954Y31030896D01*
X8894318Y30874141D01*
X8894318Y30874136D01*
X8914954Y30717381D01*
X8975463Y30571298D01*
X9071717Y30445857D01*
X9075817Y30442711D01*
X9122770Y30381522D01*
X9132839Y30305054D01*
X9103324Y30233796D01*
X9042135Y30186843D01*
X8985113Y30175500D01*
X6799811Y30175500D01*
X6725311Y30195462D01*
X6681601Y30233795D01*
X6628282Y30303282D01*
X6628281Y30303283D01*
X6502840Y30399537D01*
X6418880Y30434314D01*
X6356762Y30460044D01*
X6356760Y30460045D01*
X6356756Y30460046D01*
X6356759Y30460046D01*
X6200003Y30480682D01*
X6199997Y30480682D01*
X6043242Y30460046D01*
X5897159Y30399537D01*
X5771718Y30303283D01*
X5771717Y30303282D01*
X5675463Y30177841D01*
X5614954Y30031758D01*
X5594318Y29875003D01*
X5594318Y29874998D01*
X5614954Y29718243D01*
X5675463Y29572160D01*
X5771717Y29446719D01*
X5771718Y29446718D01*
X5897160Y29350463D01*
X5941223Y29332212D01*
X6024050Y29297904D01*
X6085239Y29250953D01*
X6114755Y29179696D01*
X6110560Y29120247D01*
X4826785Y24513764D01*
X4787556Y24447358D01*
X4720379Y24409463D01*
X4702704Y24406039D01*
X4543241Y24385046D01*
X4397159Y24324537D01*
X4271718Y24228283D01*
X4271717Y24228282D01*
X4175463Y24102841D01*
X4114954Y23956758D01*
X4094318Y23800003D01*
X4094318Y23799998D01*
X2750500Y23799998D01*
X2750500Y48299998D01*
X13229318Y48299998D01*
X13249954Y48143243D01*
X13310463Y47997160D01*
X13310464Y47997159D01*
X13406718Y47871718D01*
X13476206Y47818398D01*
X13523157Y47757212D01*
X13534500Y47700190D01*
X13534499Y42531653D01*
X13533784Y42521351D01*
X13532226Y42510182D01*
X13534420Y42462728D01*
X13534500Y42459287D01*
X13534500Y42440101D01*
X13534502Y42440077D01*
X13534834Y42438300D01*
X13536023Y42428053D01*
X13537415Y42397950D01*
X13539042Y42394265D01*
X13549199Y42361467D01*
X13549939Y42357508D01*
X13565802Y42331886D01*
X13570617Y42322753D01*
X13582792Y42295180D01*
X13582793Y42295179D01*
X13582794Y42295177D01*
X13585642Y42292329D01*
X13606962Y42265413D01*
X13609081Y42261990D01*
X13633129Y42243830D01*
X13640922Y42237048D01*
X19156359Y36721612D01*
X19194923Y36654817D01*
X19200000Y36616253D01*
X19200000Y36599812D01*
X19180038Y36525312D01*
X19141706Y36481603D01*
X19072220Y36428285D01*
X19072217Y36428282D01*
X18975963Y36302841D01*
X18915454Y36156758D01*
X18894818Y36000003D01*
X18894818Y35999998D01*
X18915454Y35843243D01*
X18975963Y35697160D01*
X19069344Y35575464D01*
X19072218Y35571718D01*
X19197659Y35475464D01*
X19343738Y35414956D01*
X19343741Y35414956D01*
X19343743Y35414955D01*
X19343740Y35414955D01*
X19500497Y35394318D01*
X19500500Y35394318D01*
X19500503Y35394318D01*
X19657259Y35414955D01*
X19657261Y35414956D01*
X19657262Y35414956D01*
X19693480Y35429959D01*
X19769947Y35440026D01*
X19841204Y35410512D01*
X19888157Y35349322D01*
X19899500Y35292301D01*
X19899500Y33399812D01*
X19879538Y33325312D01*
X19841206Y33281603D01*
X19771720Y33228285D01*
X19771717Y33228282D01*
X19675463Y33102841D01*
X19614954Y32956758D01*
X19594318Y32800003D01*
X19594318Y32799998D01*
X19614954Y32643243D01*
X19675463Y32497160D01*
X19764583Y32381017D01*
X19771718Y32371718D01*
X19897159Y32275464D01*
X20043238Y32214956D01*
X20043241Y32214956D01*
X20043243Y32214955D01*
X20043240Y32214955D01*
X20199997Y32194318D01*
X20200000Y32194318D01*
X20200003Y32194318D01*
X20356757Y32214955D01*
X20356758Y32214956D01*
X20356762Y32214956D01*
X20502841Y32275464D01*
X20628282Y32371718D01*
X20724536Y32497159D01*
X20785044Y32643238D01*
X20796103Y32727235D01*
X20805682Y32799998D01*
X20805682Y32800003D01*
X20785045Y32956758D01*
X20785044Y32956760D01*
X20785044Y32956762D01*
X20724536Y33102841D01*
X20628282Y33228282D01*
X20604409Y33246600D01*
X20558794Y33281602D01*
X20511841Y33342792D01*
X20500500Y33399807D01*
X20500500Y35330161D01*
X20520461Y35404657D01*
X20574999Y35459195D01*
X20649499Y35479157D01*
X20706517Y35467816D01*
X20836294Y35414060D01*
X20836297Y35414060D01*
X20836299Y35414059D01*
X20836296Y35414059D01*
X20993053Y35393422D01*
X20993056Y35393422D01*
X20993059Y35393422D01*
X21149813Y35414059D01*
X21149814Y35414060D01*
X21149818Y35414060D01*
X21295897Y35474568D01*
X21407541Y35560236D01*
X21478797Y35589750D01*
X21555265Y35579683D01*
X21588950Y35560235D01*
X21670291Y35497820D01*
X21689682Y35482941D01*
X21835761Y35422433D01*
X21835764Y35422433D01*
X21835766Y35422432D01*
X21835763Y35422432D01*
X21992520Y35401795D01*
X21992523Y35401795D01*
X21992526Y35401795D01*
X22149280Y35422432D01*
X22149281Y35422433D01*
X22149285Y35422433D01*
X22295364Y35482941D01*
X22420805Y35579195D01*
X22517059Y35704636D01*
X22577567Y35850715D01*
X22598205Y36007477D01*
X22578552Y36156758D01*
X22577568Y36164235D01*
X22577567Y36164237D01*
X22577567Y36164239D01*
X22517059Y36310318D01*
X22420805Y36435759D01*
X22390563Y36458965D01*
X22295363Y36532014D01*
X22215467Y36565108D01*
X22149285Y36592521D01*
X22149283Y36592522D01*
X22149279Y36592523D01*
X22149282Y36592523D01*
X21992526Y36613159D01*
X21992524Y36613159D01*
X21992523Y36613159D01*
X21954664Y36608175D01*
X21905684Y36601727D01*
X21829216Y36611796D01*
X21780878Y36644094D01*
X20244141Y38180832D01*
X20205577Y38247627D01*
X20200500Y38286191D01*
X20200500Y40625000D01*
X20869417Y40625000D01*
X20889700Y40419063D01*
X20949768Y40221045D01*
X21047310Y40038558D01*
X21047313Y40038554D01*
X21047315Y40038550D01*
X21178590Y39878590D01*
X21338550Y39747315D01*
X21338555Y39747313D01*
X21338557Y39747311D01*
X21427069Y39700000D01*
X21521046Y39649768D01*
X21719063Y39589701D01*
X21719066Y39589700D01*
X21925000Y39569417D01*
X22130934Y39589700D01*
X22328954Y39649768D01*
X22511450Y39747315D01*
X22671410Y39878590D01*
X22802685Y40038550D01*
X22900232Y40221046D01*
X22960300Y40419066D01*
X22980583Y40625000D01*
X22960300Y40830934D01*
X22900232Y41028954D01*
X22802685Y41211450D01*
X22671410Y41371410D01*
X22511450Y41502685D01*
X22511446Y41502687D01*
X22511442Y41502690D01*
X22328955Y41600232D01*
X22130936Y41660300D01*
X22130937Y41660300D01*
X21976483Y41675513D01*
X21925000Y41680583D01*
X21924999Y41680583D01*
X21719062Y41660300D01*
X21521044Y41600232D01*
X21338557Y41502690D01*
X21338547Y41502683D01*
X21178590Y41371411D01*
X21178589Y41371410D01*
X21047317Y41211453D01*
X21047310Y41211443D01*
X20949768Y41028956D01*
X20889700Y40830938D01*
X20869417Y40625000D01*
X20200500Y40625000D01*
X20200500Y59713812D01*
X20220462Y59788312D01*
X20244141Y59819171D01*
X20517771Y60092801D01*
X20817443Y60392474D01*
X20825234Y60399252D01*
X20834223Y60406040D01*
X20834228Y60406042D01*
X20866255Y60441175D01*
X20868579Y60443610D01*
X20882174Y60457203D01*
X20883194Y60458694D01*
X20889601Y60466784D01*
X20909916Y60489067D01*
X20911369Y60492819D01*
X20927388Y60523208D01*
X20928204Y60524400D01*
X20929656Y60526519D01*
X20936555Y60555853D01*
X20939608Y60565716D01*
X20950500Y60593827D01*
X20950500Y60597852D01*
X20954458Y60631964D01*
X20954807Y60633453D01*
X20955379Y60635881D01*
X20952934Y60653404D01*
X20951215Y60665732D01*
X20950499Y60676039D01*
X20950500Y61120500D01*
X20970462Y61195000D01*
X21025000Y61249538D01*
X21099500Y61269500D01*
X21219748Y61269500D01*
X21278231Y61281133D01*
X21344552Y61325448D01*
X21388867Y61391769D01*
X21400500Y61450252D01*
X21400500Y61948739D01*
X21420462Y62023239D01*
X21475000Y62077777D01*
X21549500Y62097739D01*
X21624000Y62077777D01*
X21634130Y62071370D01*
X21672070Y62045182D01*
X21702396Y62033681D01*
X21703335Y62033325D01*
X21765915Y61988242D01*
X21797569Y61917909D01*
X21799499Y61894007D01*
X21799499Y60850252D01*
X21811132Y60791770D01*
X21811133Y60791769D01*
X21855448Y60725448D01*
X21921769Y60681133D01*
X21980252Y60669500D01*
X23019748Y60669500D01*
X23078231Y60681133D01*
X23144552Y60725448D01*
X23188867Y60791769D01*
X23200500Y60850252D01*
X23200500Y61989748D01*
X23199185Y61996357D01*
X23188867Y62048231D01*
X23173411Y62071362D01*
X23144552Y62114552D01*
X23078231Y62158867D01*
X23078230Y62158868D01*
X23019748Y62170500D01*
X22775436Y62170500D01*
X22700936Y62190462D01*
X22646398Y62245000D01*
X22626436Y62319500D01*
X22643504Y62388745D01*
X22655730Y62412040D01*
X22659790Y62419775D01*
X22700500Y62584944D01*
X22700500Y62755056D01*
X22659790Y62920225D01*
X22580734Y63070852D01*
X22580732Y63070854D01*
X22580732Y63070855D01*
X22467932Y63198180D01*
X22467930Y63198181D01*
X22467929Y63198183D01*
X22327930Y63294818D01*
X22327929Y63294819D01*
X22168874Y63355140D01*
X22132729Y63359529D01*
X22042372Y63370500D01*
X21957628Y63370500D01*
X21878565Y63360900D01*
X21831125Y63355140D01*
X21672070Y63294819D01*
X21532071Y63198183D01*
X21532067Y63198180D01*
X21419267Y63070855D01*
X21340209Y62920225D01*
X21299500Y62755057D01*
X21299500Y62584946D01*
X21306842Y62555156D01*
X21305288Y62478044D01*
X21265386Y62412040D01*
X21197827Y62374829D01*
X21162171Y62370500D01*
X20080252Y62370500D01*
X20021769Y62358868D01*
X19955448Y62314552D01*
X19911132Y62248231D01*
X19899499Y62189749D01*
X19899499Y61450252D01*
X19911132Y61391770D01*
X19911133Y61391769D01*
X19955448Y61325448D01*
X20021769Y61281133D01*
X20080252Y61269500D01*
X20200500Y61269500D01*
X20275000Y61249538D01*
X20329538Y61195000D01*
X20349500Y61120500D01*
X20349500Y60836190D01*
X20329538Y60761690D01*
X20305859Y60730831D01*
X19732562Y60157535D01*
X19724774Y60150757D01*
X19715770Y60143958D01*
X19683758Y60108843D01*
X19681384Y60106357D01*
X19667829Y60092801D01*
X19667816Y60092786D01*
X19666788Y60091285D01*
X19660391Y60083211D01*
X19640086Y60060937D01*
X19640081Y60060929D01*
X19638623Y60057165D01*
X19622623Y60026811D01*
X19620345Y60023487D01*
X19620343Y60023482D01*
X19613442Y59994142D01*
X19610388Y59984280D01*
X19599500Y59956175D01*
X19599500Y59952149D01*
X19595542Y59918036D01*
X19594621Y59914122D01*
X19594621Y59914119D01*
X19598785Y59884265D01*
X19599500Y59873967D01*
X19599499Y52866072D01*
X19579537Y52791572D01*
X19524999Y52737034D01*
X19450499Y52717072D01*
X19393480Y52728414D01*
X19256759Y52785046D01*
X19100003Y52805682D01*
X19099997Y52805682D01*
X18943242Y52785046D01*
X18797159Y52724537D01*
X18671718Y52628283D01*
X18671717Y52628282D01*
X18575463Y52502841D01*
X18514954Y52356758D01*
X18494318Y52200003D01*
X18494318Y52200000D01*
X18514954Y52043243D01*
X18575463Y51897160D01*
X18665569Y51779732D01*
X18671718Y51771718D01*
X18797159Y51675464D01*
X18943238Y51614956D01*
X18943241Y51614956D01*
X18943243Y51614955D01*
X18943240Y51614955D01*
X19069948Y51598274D01*
X19141205Y51568759D01*
X19188158Y51507569D01*
X19199500Y51450549D01*
X19199500Y42849000D01*
X19179538Y42774500D01*
X19125000Y42719962D01*
X19050500Y42700000D01*
X18836352Y42700000D01*
X18761852Y42719962D01*
X18707314Y42774500D01*
X18688627Y42829552D01*
X18685045Y42856758D01*
X18685044Y42856760D01*
X18685044Y42856762D01*
X18624536Y43002841D01*
X18528282Y43128282D01*
X18402841Y43224536D01*
X18402840Y43224537D01*
X18322944Y43257631D01*
X18256762Y43285044D01*
X18256760Y43285045D01*
X18256756Y43285046D01*
X18256759Y43285046D01*
X18100003Y43305682D01*
X18099997Y43305682D01*
X17943242Y43285046D01*
X17797159Y43224537D01*
X17671718Y43128283D01*
X17671717Y43128282D01*
X17575463Y43002841D01*
X17514954Y42856758D01*
X17494318Y42700003D01*
X17494318Y42700000D01*
X17514954Y42543243D01*
X17575463Y42397160D01*
X17659748Y42287318D01*
X17671718Y42271718D01*
X17741206Y42218398D01*
X17788157Y42157212D01*
X17799500Y42100190D01*
X17799500Y39288132D01*
X17779538Y39213632D01*
X17725000Y39159094D01*
X17650500Y39139132D01*
X17576000Y39159094D01*
X17545141Y39182773D01*
X14179141Y42548773D01*
X14140577Y42615568D01*
X14135500Y42654132D01*
X14135500Y47700190D01*
X14155462Y47774690D01*
X14193792Y47818397D01*
X14263282Y47871718D01*
X14359536Y47997159D01*
X14420044Y48143238D01*
X14433442Y48245001D01*
X14440682Y48299998D01*
X14440682Y48300003D01*
X14420045Y48456758D01*
X14420044Y48456760D01*
X14420044Y48456762D01*
X14359536Y48602841D01*
X14263282Y48728282D01*
X14137841Y48824536D01*
X14137840Y48824537D01*
X14057944Y48857631D01*
X13991762Y48885044D01*
X13991760Y48885045D01*
X13991756Y48885046D01*
X13991759Y48885046D01*
X13835003Y48905682D01*
X13834997Y48905682D01*
X13678242Y48885046D01*
X13532159Y48824537D01*
X13406718Y48728283D01*
X13406717Y48728282D01*
X13310463Y48602841D01*
X13249954Y48456758D01*
X13229318Y48300003D01*
X13229318Y48299998D01*
X2750500Y48299998D01*
X2750500Y50146237D01*
X2750969Y50154585D01*
X2751259Y50157163D01*
X2755270Y50192758D01*
X2744211Y50251203D01*
X2735348Y50310010D01*
X2735346Y50310014D01*
X2732828Y50318178D01*
X2730023Y50326196D01*
X2704472Y50374538D01*
X2702222Y50378796D01*
X2676425Y50432365D01*
X2676423Y50432367D01*
X2671614Y50439422D01*
X2666565Y50446262D01*
X2624505Y50488323D01*
X2584059Y50531913D01*
X2584057Y50531914D01*
X2584055Y50531917D01*
X2584051Y50531920D01*
X2575329Y50538875D01*
X2576083Y50539821D01*
X2562745Y50550082D01*
X2124864Y50987963D01*
X2086300Y51054758D01*
X2081223Y51093322D01*
X2081223Y51395001D01*
X4075382Y51395001D01*
X4094699Y51198866D01*
X4151910Y51010269D01*
X4244806Y50836474D01*
X4244810Y50836468D01*
X4244813Y50836462D01*
X4369840Y50684117D01*
X4522185Y50559090D01*
X4522194Y50559085D01*
X4522196Y50559084D01*
X4695991Y50466188D01*
X4695993Y50466188D01*
X4695996Y50466186D01*
X4884591Y50408976D01*
X5080723Y50389659D01*
X5276855Y50408976D01*
X5465450Y50466186D01*
X5639261Y50559090D01*
X5791606Y50684117D01*
X5916633Y50836462D01*
X6009537Y51010273D01*
X6066747Y51198868D01*
X6086064Y51395000D01*
X6066747Y51591132D01*
X6009537Y51779727D01*
X6009535Y51779730D01*
X6009535Y51779732D01*
X5916639Y51953527D01*
X5916638Y51953529D01*
X5916633Y51953538D01*
X5791606Y52105883D01*
X5639261Y52230910D01*
X5639255Y52230913D01*
X5639249Y52230917D01*
X5465454Y52323813D01*
X5276857Y52381024D01*
X5080723Y52400341D01*
X4884588Y52381024D01*
X4695991Y52323813D01*
X4522196Y52230917D01*
X4522188Y52230912D01*
X4522186Y52230911D01*
X4522185Y52230910D01*
X4369840Y52105883D01*
X4269005Y51983015D01*
X4244811Y51953535D01*
X4244806Y51953527D01*
X4151910Y51779732D01*
X4094699Y51591135D01*
X4075382Y51395001D01*
X2081223Y51395001D01*
X2081223Y52214749D01*
X2069590Y52273231D01*
X2060969Y52286133D01*
X2025275Y52339552D01*
X1958954Y52383867D01*
X1958953Y52383868D01*
X1900471Y52395500D01*
X260975Y52395500D01*
X202492Y52383868D01*
X136171Y52339552D01*
X91855Y52273231D01*
X80223Y52214749D01*
X80223Y50575252D01*
X91855Y50516770D01*
X91856Y50516769D01*
X136171Y50450448D01*
X202492Y50406133D01*
X260975Y50394500D01*
X1382402Y50394500D01*
X1456902Y50374538D01*
X1487761Y50350859D01*
X1805859Y50032761D01*
X1844423Y49965966D01*
X1849500Y49927402D01*
X1849500Y22850404D01*
X1829538Y22775904D01*
X1805859Y22745045D01*
X352298Y21291485D01*
X346065Y21285915D01*
X316030Y21261963D01*
X282517Y21212809D01*
X269384Y21195014D01*
X209082Y21146926D01*
X132815Y21135432D01*
X61019Y21163611D01*
X12931Y21223913D01*
X500Y21283495D01*
X500Y29275190D01*
X20462Y29349690D01*
X58792Y29393397D01*
X128282Y29446718D01*
X224536Y29572159D01*
X285044Y29718238D01*
X285873Y29724529D01*
X305682Y29874998D01*
X305682Y29875003D01*
X285045Y30031758D01*
X285044Y30031760D01*
X285044Y30031762D01*
X224536Y30177841D01*
X128282Y30303282D01*
X120170Y30309507D01*
X2840Y30399537D01*
X-81120Y30434314D01*
X-143238Y30460044D01*
X-143240Y30460045D01*
X-143244Y30460046D01*
X-143241Y30460046D01*
X-299997Y30480682D01*
X-300003Y30480682D01*
X-456758Y30460046D01*
X-602841Y30399537D01*
X-728282Y30303283D01*
X-728283Y30303282D01*
X-824537Y30177841D01*
X-885046Y30031758D01*
X-905682Y29875003D01*
X-905682Y29874998D01*
X-885046Y29718243D01*
X-824537Y29572160D01*
X-732459Y29452162D01*
X-728282Y29446718D01*
X-658794Y29393398D01*
X-611843Y29332212D01*
X-600500Y29275190D01*
X-600500Y13199812D01*
X-620462Y13125312D01*
X-658794Y13081603D01*
X-728280Y13028285D01*
X-728283Y13028282D01*
X-824537Y12902841D01*
X-885046Y12756758D01*
X-905682Y12600003D01*
X-905682Y12599998D01*
X-1699500Y12599998D01*
X-1699500Y60850252D01*
X2699500Y60850252D01*
X2711132Y60791770D01*
X2711133Y60791769D01*
X2755448Y60725448D01*
X2821769Y60681133D01*
X2880252Y60669500D01*
X3919748Y60669500D01*
X3978231Y60681133D01*
X4044552Y60725448D01*
X4088867Y60791769D01*
X4100500Y60850252D01*
X4100500Y61620000D01*
X4500000Y61620000D01*
X4500000Y61450302D01*
X4511604Y61391965D01*
X4555807Y61325809D01*
X4555808Y61325808D01*
X4621964Y61281605D01*
X4680302Y61270000D01*
X5050000Y61270000D01*
X5050000Y61620000D01*
X5450000Y61620000D01*
X5450000Y61270000D01*
X5819698Y61270000D01*
X5878035Y61281605D01*
X5944191Y61325808D01*
X5944192Y61325809D01*
X5988395Y61391965D01*
X6000000Y61450302D01*
X6000000Y61620000D01*
X5450000Y61620000D01*
X5050000Y61620000D01*
X4500000Y61620000D01*
X4100500Y61620000D01*
X4100500Y61894009D01*
X4120462Y61968508D01*
X4175000Y62023046D01*
X4196660Y62033324D01*
X4227930Y62045182D01*
X4271800Y62075464D01*
X4344450Y62101357D01*
X4420315Y62087455D01*
X4461801Y62058199D01*
X4500000Y62020000D01*
X5050000Y62020000D01*
X5050000Y62370000D01*
X5450000Y62370000D01*
X5450000Y62020000D01*
X6000000Y62020000D01*
X6000000Y62189699D01*
X5988395Y62248036D01*
X5944192Y62314192D01*
X5944191Y62314193D01*
X5878035Y62358396D01*
X5819698Y62370000D01*
X5450000Y62370000D01*
X5050000Y62370000D01*
X4737705Y62370000D01*
X4663205Y62389962D01*
X4608667Y62444500D01*
X4588705Y62519000D01*
X4593034Y62554655D01*
X4600500Y62584944D01*
X4600500Y62755056D01*
X4559790Y62920225D01*
X4480734Y63070852D01*
X4480732Y63070854D01*
X4480732Y63070855D01*
X4367932Y63198180D01*
X4367930Y63198181D01*
X4367929Y63198183D01*
X4227930Y63294818D01*
X4227929Y63294819D01*
X4068874Y63355140D01*
X4032729Y63359529D01*
X3942372Y63370500D01*
X3857628Y63370500D01*
X3778565Y63360900D01*
X3731125Y63355140D01*
X3572070Y63294819D01*
X3432071Y63198183D01*
X3432067Y63198180D01*
X3319267Y63070855D01*
X3240209Y62920225D01*
X3199500Y62755057D01*
X3199500Y62584944D01*
X3240210Y62419775D01*
X3240210Y62419774D01*
X3256496Y62388745D01*
X3273443Y62313502D01*
X3250498Y62239866D01*
X3193809Y62187568D01*
X3124564Y62170500D01*
X2880252Y62170500D01*
X2821769Y62158868D01*
X2755448Y62114552D01*
X2711132Y62048231D01*
X2699500Y61989749D01*
X2699500Y60850252D01*
X-1699500Y60850252D01*
X-1699500Y65050252D01*
X2699500Y65050252D01*
X2711132Y64991770D01*
X2711133Y64991769D01*
X2755448Y64925448D01*
X2821769Y64881133D01*
X2880252Y64869500D01*
X3124564Y64869500D01*
X3199064Y64849538D01*
X3253602Y64795000D01*
X3273564Y64720500D01*
X3256496Y64651255D01*
X3240210Y64620227D01*
X3240210Y64620226D01*
X3199500Y64455057D01*
X3199500Y64284944D01*
X3240209Y64119776D01*
X3319267Y63969146D01*
X3432067Y63841821D01*
X3432071Y63841817D01*
X3572070Y63745182D01*
X3731128Y63684860D01*
X3857628Y63669500D01*
X3857634Y63669500D01*
X3942365Y63669500D01*
X3942372Y63669500D01*
X4068872Y63684860D01*
X4227930Y63745182D01*
X4367929Y63841817D01*
X4480734Y63969148D01*
X4559790Y64119775D01*
X4600500Y64284944D01*
X4600500Y64455056D01*
X4593158Y64484845D01*
X4594712Y64561956D01*
X4634614Y64627960D01*
X4702173Y64665171D01*
X4737829Y64669500D01*
X5819748Y64669500D01*
X5878231Y64681133D01*
X5944552Y64725448D01*
X5988867Y64791769D01*
X5988867Y64791774D01*
X5989753Y64793909D01*
X5993966Y64799401D01*
X5997021Y64803972D01*
X5997320Y64803773D01*
X6036702Y64855101D01*
X6107957Y64884621D01*
X6184426Y64874558D01*
X6232773Y64842256D01*
X6755860Y64319169D01*
X6794423Y64252376D01*
X6799500Y64213812D01*
X6799500Y60663709D01*
X6798785Y60653404D01*
X6797226Y60642234D01*
X6799420Y60594786D01*
X6799500Y60591345D01*
X6799500Y60572159D01*
X6799502Y60572135D01*
X6799834Y60570358D01*
X6801023Y60560111D01*
X6802415Y60530008D01*
X6804042Y60526323D01*
X6814199Y60493525D01*
X6814939Y60489566D01*
X6830802Y60463944D01*
X6835617Y60454811D01*
X6847792Y60427238D01*
X6847793Y60427237D01*
X6847794Y60427235D01*
X6850642Y60424387D01*
X6871962Y60397471D01*
X6874081Y60394048D01*
X6898129Y60375888D01*
X6905922Y60369106D01*
X11042464Y56232565D01*
X11049245Y56224773D01*
X11056042Y56215772D01*
X11091147Y56183769D01*
X11093637Y56181392D01*
X11107202Y56167827D01*
X11107208Y56167822D01*
X11108697Y56166802D01*
X11116791Y56160391D01*
X11139067Y56140084D01*
X11142816Y56138632D01*
X11173203Y56122615D01*
X11176519Y56120343D01*
X11205864Y56113442D01*
X11215714Y56110392D01*
X11243827Y56099500D01*
X11247851Y56099500D01*
X11281964Y56095542D01*
X11283873Y56095094D01*
X11285881Y56094621D01*
X11315733Y56098786D01*
X11326034Y56099500D01*
X11600189Y56099500D01*
X11674689Y56079538D01*
X11718398Y56041206D01*
X11771718Y55971718D01*
X11897159Y55875464D01*
X12043238Y55814956D01*
X12043241Y55814956D01*
X12043243Y55814955D01*
X12043240Y55814955D01*
X12199997Y55794318D01*
X12200000Y55794318D01*
X12200003Y55794318D01*
X12356757Y55814955D01*
X12356758Y55814956D01*
X12356762Y55814956D01*
X12502841Y55875464D01*
X12628282Y55971718D01*
X12724536Y56097159D01*
X12785044Y56243238D01*
X12805682Y56400000D01*
X12785044Y56556762D01*
X12724536Y56702841D01*
X12628282Y56828282D01*
X12502841Y56924536D01*
X12502840Y56924537D01*
X12422944Y56957631D01*
X12356762Y56985044D01*
X12356760Y56985045D01*
X12356756Y56985046D01*
X12356759Y56985046D01*
X12200003Y57005682D01*
X12199997Y57005682D01*
X12043242Y56985046D01*
X11897159Y56924537D01*
X11771718Y56828283D01*
X11771717Y56828282D01*
X11718399Y56758795D01*
X11657209Y56711842D01*
X11600189Y56700500D01*
X11486189Y56700500D01*
X11411689Y56720462D01*
X11380830Y56744141D01*
X7444141Y60680831D01*
X7405577Y60747626D01*
X7400500Y60786190D01*
X7400500Y63907365D01*
X11445718Y63907365D01*
X11460880Y63782493D01*
X11475893Y63658847D01*
X11545538Y63418403D01*
X11545539Y63418399D01*
X11652859Y63192227D01*
X11652861Y63192224D01*
X11795064Y62986208D01*
X11795065Y62986207D01*
X11795068Y62986203D01*
X11968484Y62805659D01*
X12168615Y62655270D01*
X12390279Y62538931D01*
X12627734Y62459657D01*
X12627738Y62459657D01*
X12627739Y62459656D01*
X12874824Y62419501D01*
X12874828Y62419500D01*
X12874831Y62419500D01*
X13062477Y62419500D01*
X13062481Y62419500D01*
X13249527Y62434600D01*
X13492591Y62494510D01*
X13722897Y62592634D01*
X13934481Y62726432D01*
X13934482Y62726434D01*
X13934485Y62726435D01*
X14023912Y62805661D01*
X14121862Y62892437D01*
X14280188Y63086350D01*
X14405357Y63303150D01*
X14494128Y63537220D01*
X14544202Y63782500D01*
X14554282Y64032635D01*
X14524107Y64281149D01*
X14508134Y64336294D01*
X14454461Y64521598D01*
X14454460Y64521602D01*
X14386336Y64665171D01*
X14347141Y64747772D01*
X14308486Y64803773D01*
X14204935Y64953793D01*
X14204934Y64953794D01*
X14204932Y64953797D01*
X14141343Y65020000D01*
X19900000Y65020000D01*
X19900000Y64850302D01*
X19911604Y64791965D01*
X19955807Y64725809D01*
X19955808Y64725808D01*
X20021964Y64681605D01*
X20080302Y64670000D01*
X20450000Y64670000D01*
X20850000Y64670000D01*
X21162295Y64670000D01*
X21236795Y64650038D01*
X21291333Y64595500D01*
X21311295Y64521000D01*
X21306965Y64485346D01*
X21306842Y64484844D01*
X21299499Y64455056D01*
X21299500Y64284944D01*
X21340209Y64119776D01*
X21419267Y63969146D01*
X21532067Y63841821D01*
X21532071Y63841817D01*
X21672070Y63745182D01*
X21831128Y63684860D01*
X21957628Y63669500D01*
X21957634Y63669500D01*
X22042365Y63669500D01*
X22042372Y63669500D01*
X22168872Y63684860D01*
X22327930Y63745182D01*
X22467929Y63841817D01*
X22580734Y63969148D01*
X22659790Y64119775D01*
X22700500Y64284944D01*
X22700500Y64455056D01*
X22696818Y64469993D01*
X22684098Y64521602D01*
X22659790Y64620225D01*
X22643503Y64651256D01*
X22626557Y64726498D01*
X22649502Y64800134D01*
X22706191Y64852432D01*
X22775436Y64869500D01*
X23019748Y64869500D01*
X23078231Y64881133D01*
X23144552Y64925448D01*
X23188867Y64991769D01*
X23200500Y65050252D01*
X23200500Y66189748D01*
X23196953Y66207578D01*
X23188867Y66248231D01*
X23188867Y66248232D01*
X23144552Y66314552D01*
X23078231Y66358867D01*
X23078230Y66358868D01*
X23019748Y66370500D01*
X21980252Y66370500D01*
X21921769Y66358868D01*
X21855448Y66314552D01*
X21811132Y66248231D01*
X21799500Y66189749D01*
X21799500Y65145993D01*
X21779538Y65071493D01*
X21725000Y65016955D01*
X21703337Y65006676D01*
X21672070Y64994818D01*
X21672066Y64994816D01*
X21628198Y64964536D01*
X21555545Y64938644D01*
X21479681Y64952547D01*
X21438198Y64981802D01*
X21400000Y65020000D01*
X20850000Y65020000D01*
X20850000Y64670000D01*
X20450000Y64670000D01*
X20450000Y65020000D01*
X19900000Y65020000D01*
X14141343Y65020000D01*
X14031516Y65134341D01*
X13831385Y65284730D01*
X13609721Y65401069D01*
X13553016Y65420000D01*
X19900000Y65420000D01*
X20450000Y65420000D01*
X20450000Y65770000D01*
X20850000Y65770000D01*
X20850000Y65420000D01*
X21400000Y65420000D01*
X21400000Y65589699D01*
X21388395Y65648036D01*
X21344192Y65714192D01*
X21344191Y65714193D01*
X21278035Y65758396D01*
X21219698Y65770000D01*
X20850000Y65770000D01*
X20450000Y65770000D01*
X20080302Y65770000D01*
X20021964Y65758396D01*
X19955808Y65714193D01*
X19955807Y65714192D01*
X19911604Y65648036D01*
X19900000Y65589699D01*
X19900000Y65420000D01*
X13553016Y65420000D01*
X13372266Y65480343D01*
X13372262Y65480344D01*
X13372261Y65480344D01*
X13372260Y65480345D01*
X13125175Y65520500D01*
X13125169Y65520500D01*
X12937519Y65520500D01*
X12888898Y65516575D01*
X12750474Y65505401D01*
X12507406Y65445490D01*
X12277103Y65347366D01*
X12277101Y65347365D01*
X12065514Y65213566D01*
X11878140Y65047566D01*
X11719810Y64853649D01*
X11594642Y64636850D01*
X11594641Y64636848D01*
X11505875Y64402791D01*
X11505871Y64402780D01*
X11455799Y64157508D01*
X11455798Y64157504D01*
X11455798Y64157500D01*
X11445718Y63907365D01*
X7400500Y63907365D01*
X7400500Y64336294D01*
X7401216Y64346601D01*
X7402773Y64357766D01*
X7400580Y64405215D01*
X7400500Y64408656D01*
X7400500Y64427841D01*
X7400500Y64427844D01*
X7400166Y64429626D01*
X7398976Y64439878D01*
X7397585Y64469992D01*
X7395957Y64473679D01*
X7385799Y64506485D01*
X7385061Y64510432D01*
X7385061Y64510433D01*
X7369193Y64536060D01*
X7364381Y64545191D01*
X7352206Y64572765D01*
X7349359Y64575612D01*
X7328037Y64602532D01*
X7325919Y64605952D01*
X7325917Y64605954D01*
X7301869Y64624114D01*
X7294076Y64630895D01*
X6537536Y65387436D01*
X6530754Y65395229D01*
X6523958Y65404228D01*
X6506657Y65420000D01*
X6488838Y65436244D01*
X6486361Y65438610D01*
X6472797Y65452174D01*
X6472791Y65452179D01*
X6471291Y65453207D01*
X6463206Y65459612D01*
X6440932Y65479917D01*
X6440930Y65479918D01*
X6437174Y65481373D01*
X6406799Y65497383D01*
X6403478Y65499658D01*
X6374142Y65506558D01*
X6364278Y65509613D01*
X6336174Y65520500D01*
X6336173Y65520500D01*
X6332150Y65520500D01*
X6298037Y65524458D01*
X6294122Y65525379D01*
X6294118Y65525379D01*
X6287517Y65524458D01*
X6264266Y65521215D01*
X6253966Y65520500D01*
X6136555Y65520500D01*
X6062055Y65540462D01*
X6007517Y65595000D01*
X5990418Y65640429D01*
X5988867Y65648231D01*
X5944552Y65714552D01*
X5878231Y65758867D01*
X5878230Y65758868D01*
X5819748Y65770500D01*
X4680252Y65770500D01*
X4621769Y65758868D01*
X4555448Y65714552D01*
X4511132Y65648231D01*
X4499500Y65589749D01*
X4499500Y65091262D01*
X4479538Y65016762D01*
X4425000Y64962224D01*
X4350500Y64942262D01*
X4276000Y64962224D01*
X4265859Y64968637D01*
X4227926Y64994821D01*
X4196663Y65006677D01*
X4134083Y65051761D01*
X4102429Y65122094D01*
X4100500Y65145994D01*
X4100500Y66189749D01*
X4088867Y66248231D01*
X4044552Y66314552D01*
X3978231Y66358867D01*
X3978230Y66358868D01*
X3919748Y66370500D01*
X2880252Y66370500D01*
X2821769Y66358868D01*
X2755448Y66314552D01*
X2711132Y66248231D01*
X2699500Y66189749D01*
X2699500Y65050252D01*
X-1699500Y65050252D01*
X-1699500Y65813812D01*
X-1679538Y65888312D01*
X-1655859Y65919171D01*
X80830Y67655859D01*
X147625Y67694423D01*
X186189Y67699500D01*
X25813811Y67699500D01*
X25888311Y67679538D01*
G37*
%TD.AperFunction*%
%TD*%
M02*
