%TF.GenerationSoftware,KiCad,Pcbnew,7.0.7*%
%TF.CreationDate,2023-11-27T18:28:25+03:00*%
%TF.ProjectId,Alatyr,416c6174-7972-42e6-9b69-6361645f7063,rev?*%
%TF.SameCoordinates,PX6422c40PY6146580*%
%TF.FileFunction,Soldermask,Top*%
%TF.FilePolarity,Negative*%
%FSLAX46Y46*%
G04 Gerber Fmt 4.6, Leading zero omitted, Abs format (unit mm)*
G04 Created by KiCad (PCBNEW 7.0.7) date 2023-11-27 18:28:25*
%MOMM*%
%LPD*%
G01*
G04 APERTURE LIST*
G04 Aperture macros list*
%AMRoundRect*
0 Rectangle with rounded corners*
0 $1 Rounding radius*
0 $2 $3 $4 $5 $6 $7 $8 $9 X,Y pos of 4 corners*
0 Add a 4 corners polygon primitive as box body*
4,1,4,$2,$3,$4,$5,$6,$7,$8,$9,$2,$3,0*
0 Add four circle primitives for the rounded corners*
1,1,$1+$1,$2,$3*
1,1,$1+$1,$4,$5*
1,1,$1+$1,$6,$7*
1,1,$1+$1,$8,$9*
0 Add four rect primitives between the rounded corners*
20,1,$1+$1,$2,$3,$4,$5,0*
20,1,$1+$1,$4,$5,$6,$7,0*
20,1,$1+$1,$6,$7,$8,$9,0*
20,1,$1+$1,$8,$9,$2,$3,0*%
G04 Aperture macros list end*
%ADD10RoundRect,0.237500X0.237500X-0.287500X0.237500X0.287500X-0.237500X0.287500X-0.237500X-0.287500X0*%
%ADD11RoundRect,0.237500X0.237500X-0.300000X0.237500X0.300000X-0.237500X0.300000X-0.237500X-0.300000X0*%
%ADD12RoundRect,0.237500X-0.250000X-0.237500X0.250000X-0.237500X0.250000X0.237500X-0.250000X0.237500X0*%
%ADD13RoundRect,0.237500X0.287500X0.237500X-0.287500X0.237500X-0.287500X-0.237500X0.287500X-0.237500X0*%
%ADD14C,1.000000*%
%ADD15RoundRect,0.237500X0.300000X0.237500X-0.300000X0.237500X-0.300000X-0.237500X0.300000X-0.237500X0*%
%ADD16RoundRect,0.150000X-0.150000X0.512500X-0.150000X-0.512500X0.150000X-0.512500X0.150000X0.512500X0*%
%ADD17R,1.600000X1.600000*%
%ADD18C,1.600000*%
%ADD19RoundRect,0.150000X0.512500X0.150000X-0.512500X0.150000X-0.512500X-0.150000X0.512500X-0.150000X0*%
%ADD20C,2.000000*%
%ADD21RoundRect,0.237500X-0.300000X-0.237500X0.300000X-0.237500X0.300000X0.237500X-0.300000X0.237500X0*%
%ADD22RoundRect,0.150000X-0.512500X-0.150000X0.512500X-0.150000X0.512500X0.150000X-0.512500X0.150000X0*%
%ADD23RoundRect,0.075000X-0.075000X0.662500X-0.075000X-0.662500X0.075000X-0.662500X0.075000X0.662500X0*%
%ADD24RoundRect,0.075000X-0.662500X0.075000X-0.662500X-0.075000X0.662500X-0.075000X0.662500X0.075000X0*%
%ADD25RoundRect,0.237500X-0.237500X0.300000X-0.237500X-0.300000X0.237500X-0.300000X0.237500X0.300000X0*%
%ADD26R,1.800000X2.100000*%
%ADD27RoundRect,0.250000X-0.250000X-0.250000X0.250000X-0.250000X0.250000X0.250000X-0.250000X0.250000X0*%
%ADD28C,2.600000*%
%ADD29R,1.700000X1.700000*%
%ADD30O,1.700000X1.700000*%
%ADD31RoundRect,0.237500X0.250000X0.237500X-0.250000X0.237500X-0.250000X-0.237500X0.250000X-0.237500X0*%
%ADD32RoundRect,0.150000X-0.150000X0.725000X-0.150000X-0.725000X0.150000X-0.725000X0.150000X0.725000X0*%
%ADD33RoundRect,0.237500X-0.237500X0.250000X-0.237500X-0.250000X0.237500X-0.250000X0.237500X0.250000X0*%
%ADD34R,1.000000X2.000000*%
%ADD35R,2.000000X1.000000*%
%ADD36RoundRect,0.250000X-0.250000X0.250000X-0.250000X-0.250000X0.250000X-0.250000X0.250000X0.250000X0*%
%ADD37RoundRect,0.237500X0.237500X-0.250000X0.237500X0.250000X-0.237500X0.250000X-0.237500X-0.250000X0*%
%ADD38C,0.900000*%
%ADD39C,0.750000*%
%ADD40O,1.000000X1.600000*%
%ADD41O,1.000000X2.100000*%
G04 APERTURE END LIST*
D10*
%TO.C,L2*%
X4325000Y10875000D03*
X4325000Y12625000D03*
%TD*%
D11*
%TO.C,C17*%
X23157500Y36112500D03*
X23157500Y37837500D03*
%TD*%
D12*
%TO.C,R8*%
X14812500Y18045000D03*
X16637500Y18045000D03*
%TD*%
D13*
%TO.C,L1*%
X19230000Y40625000D03*
X17480000Y40625000D03*
%TD*%
D14*
%TO.C,TP6*%
X6225000Y24775000D03*
%TD*%
D15*
%TO.C,C20*%
X9737500Y23375000D03*
X8012500Y23375000D03*
%TD*%
D16*
%TO.C,DA3*%
X2755000Y14862500D03*
X1805000Y14862500D03*
X855000Y14862500D03*
X855000Y12587500D03*
X1805000Y12587500D03*
X2755000Y12587500D03*
%TD*%
D17*
%TO.C,HA1*%
X1080723Y51395000D03*
D18*
X5080723Y51395000D03*
%TD*%
D12*
%TO.C,R12*%
X-627500Y18387500D03*
X1197500Y18387500D03*
%TD*%
D19*
%TO.C,VT1*%
X14190352Y12742500D03*
X14190352Y14642500D03*
X11915352Y13692500D03*
%TD*%
D20*
%TO.C,M1*%
X17425000Y57500100D03*
X14925000Y57500100D03*
%TD*%
D21*
%TO.C,C8*%
X17492500Y39125000D03*
X19217500Y39125000D03*
%TD*%
D14*
%TO.C,TP7*%
X225000Y20425000D03*
%TD*%
D12*
%TO.C,R2*%
X9262500Y10905000D03*
X11087500Y10905000D03*
%TD*%
D22*
%TO.C,DD2*%
X2787770Y22500000D03*
X2787770Y21550000D03*
X2787770Y20600000D03*
X5062770Y20600000D03*
X5062770Y22500000D03*
%TD*%
D23*
%TO.C,DD1*%
X22195000Y34287500D03*
X21695000Y34287500D03*
X21195000Y34287500D03*
X20695000Y34287500D03*
X20195000Y34287500D03*
X19695000Y34287500D03*
X19195000Y34287500D03*
X18695000Y34287500D03*
X18195000Y34287500D03*
X17695000Y34287500D03*
X17195000Y34287500D03*
X16695000Y34287500D03*
D24*
X15282500Y32875000D03*
X15282500Y32375000D03*
X15282500Y31875000D03*
X15282500Y31375000D03*
X15282500Y30875000D03*
X15282500Y30375000D03*
X15282500Y29875000D03*
X15282500Y29375000D03*
X15282500Y28875000D03*
X15282500Y28375000D03*
X15282500Y27875000D03*
X15282500Y27375000D03*
D23*
X16695000Y25962500D03*
X17195000Y25962500D03*
X17695000Y25962500D03*
X18195000Y25962500D03*
X18695000Y25962500D03*
X19195000Y25962500D03*
X19695000Y25962500D03*
X20195000Y25962500D03*
X20695000Y25962500D03*
X21195000Y25962500D03*
X21695000Y25962500D03*
X22195000Y25962500D03*
D24*
X23607500Y27375000D03*
X23607500Y27875000D03*
X23607500Y28375000D03*
X23607500Y28875000D03*
X23607500Y29375000D03*
X23607500Y29875000D03*
X23607500Y30375000D03*
X23607500Y30875000D03*
X23607500Y31375000D03*
X23607500Y31875000D03*
X23607500Y32375000D03*
X23607500Y32875000D03*
%TD*%
D25*
%TO.C,C13*%
X25625000Y33500000D03*
X25625000Y31775000D03*
%TD*%
D16*
%TO.C,DA2*%
X9825000Y21650000D03*
X7925000Y21650000D03*
X8875000Y19375000D03*
%TD*%
D21*
%TO.C,C9*%
X15772500Y51275000D03*
X17497500Y51275000D03*
%TD*%
D26*
%TO.C,ZQ1*%
X18105000Y46135000D03*
X18105000Y49035000D03*
X15805000Y49035000D03*
X15805000Y46135000D03*
%TD*%
D27*
%TO.C,VD2*%
X10525270Y17425000D03*
X13025270Y17425000D03*
%TD*%
D28*
%TO.C,H2*%
X2000000Y3970000D03*
%TD*%
D11*
%TO.C,C18*%
X8875000Y15700000D03*
X8875000Y17425000D03*
%TD*%
D29*
%TO.C,XP2*%
X21925000Y53325000D03*
D30*
X21925000Y50785000D03*
X21925000Y48245000D03*
X21925000Y45705000D03*
X21925000Y43165000D03*
X21925000Y40625000D03*
%TD*%
D31*
%TO.C,R3*%
X19797500Y19905000D03*
X17972500Y19905000D03*
%TD*%
D11*
%TO.C,C15*%
X13105000Y26712500D03*
X13105000Y28437500D03*
%TD*%
D14*
%TO.C,TP1*%
X6825000Y45525000D03*
%TD*%
D32*
%TO.C,DA1*%
X26395000Y17745000D03*
X25125000Y17745000D03*
X23855000Y17745000D03*
X22585000Y17745000D03*
X22585000Y12595000D03*
X23855000Y12595000D03*
X25125000Y12595000D03*
X26395000Y12595000D03*
%TD*%
D11*
%TO.C,C12*%
X24725000Y36112500D03*
X24725000Y37837500D03*
%TD*%
%TO.C,C21*%
X2745000Y16662500D03*
X2745000Y18387500D03*
%TD*%
D33*
%TO.C,R7*%
X18279642Y16467500D03*
X18279642Y14642500D03*
%TD*%
D34*
%TO.C,U1*%
X-1000000Y27300000D03*
X500000Y27300000D03*
X2000000Y27300000D03*
X3500000Y27300000D03*
X5000000Y27300000D03*
X6500000Y27300000D03*
X8000000Y27300000D03*
X9500000Y27300000D03*
D35*
X11500000Y30000000D03*
X11500000Y31500000D03*
X11500000Y33000000D03*
X11500000Y34500000D03*
X11500000Y36000000D03*
X11500000Y37500000D03*
X11500000Y39000000D03*
X11500000Y40500000D03*
D34*
X9500000Y43300000D03*
X8000000Y43300000D03*
X6500000Y43300000D03*
X5000000Y43300000D03*
X3500000Y43300000D03*
X2000000Y43300000D03*
X500000Y43300000D03*
X-1000000Y43300000D03*
%TD*%
D19*
%TO.C,VT3*%
X11025000Y46091200D03*
X11025000Y47991200D03*
X8750000Y47041200D03*
%TD*%
D33*
%TO.C,R10*%
X11525270Y21030000D03*
X11525270Y19205000D03*
%TD*%
D31*
%TO.C,R1*%
X16787500Y10905000D03*
X14962500Y10905000D03*
%TD*%
D33*
%TO.C,R6*%
X13835000Y51275000D03*
X13835000Y49450000D03*
%TD*%
D21*
%TO.C,C5*%
X21422500Y19905000D03*
X23147500Y19905000D03*
%TD*%
%TO.C,C10*%
X17492500Y37625000D03*
X19217500Y37625000D03*
%TD*%
D36*
%TO.C,VD3*%
X4525000Y17362500D03*
X4525000Y14862500D03*
%TD*%
D15*
%TO.C,C11*%
X20475000Y12595000D03*
X18750000Y12595000D03*
%TD*%
D31*
%TO.C,R9*%
X14930000Y25092500D03*
X13105000Y25092500D03*
%TD*%
D28*
%TO.C,H3*%
X24000000Y3970000D03*
%TD*%
D14*
%TO.C,TP2*%
X4625000Y45525000D03*
%TD*%
D19*
%TO.C,VT2*%
X19125000Y53437600D03*
X19125000Y55337600D03*
X16850000Y54387600D03*
%TD*%
D15*
%TO.C,C14*%
X23420000Y23875000D03*
X21695000Y23875000D03*
%TD*%
%TO.C,C7*%
X18105000Y43875000D03*
X16380000Y43875000D03*
%TD*%
D14*
%TO.C,TP4*%
X20475000Y10425000D03*
%TD*%
D31*
%TO.C,R5*%
X26650000Y19905000D03*
X24825000Y19905000D03*
%TD*%
D28*
%TO.C,H1*%
X13000000Y63970000D03*
%TD*%
D14*
%TO.C,TP3*%
X15825000Y42075000D03*
%TD*%
D21*
%TO.C,C19*%
X80000Y10875000D03*
X1805000Y10875000D03*
%TD*%
D37*
%TO.C,R14*%
X8725000Y49570000D03*
X8725000Y51395000D03*
%TD*%
D21*
%TO.C,C16*%
X14862500Y16467500D03*
X16587500Y16467500D03*
%TD*%
D37*
%TO.C,R11*%
X14925000Y53437600D03*
X14925000Y55262600D03*
%TD*%
D31*
%TO.C,R13*%
X1197500Y16662500D03*
X-627500Y16662500D03*
%TD*%
D14*
%TO.C,TP5*%
X225000Y22475000D03*
%TD*%
D29*
%TO.C,XP1*%
X20475000Y14655000D03*
D30*
X20475000Y17195000D03*
%TD*%
D29*
%TO.C,XP3*%
X6575000Y17175000D03*
D30*
X6575000Y14635000D03*
X6575000Y12095000D03*
%TD*%
D38*
%TO.C,SW1*%
X3900000Y62670000D03*
X3900000Y64370000D03*
%TD*%
%TO.C,SW2*%
X22000000Y64370000D03*
X22000000Y62670000D03*
%TD*%
D39*
%TO.C,XS1*%
X15890000Y6430000D03*
X10110000Y6430000D03*
D40*
X17320000Y2750000D03*
D41*
X17320000Y6930000D03*
D40*
X8680000Y2750000D03*
D41*
X8680000Y6930000D03*
%TD*%
M02*
